<svg width="12" height="18" viewBox="0 0 12 18" fill="none" xmlns="http://www.w3.org/2000/svg">
<path d="M2.2002 0C2.75936 2.44418e-08 3.31009 0.201683 3.72754 0.582031L11.3271 7.50781C11.7471 7.8907 12 8.42887 12 9.00781C11.9999 9.5866 11.747 10.124 11.3271 10.5068L3.72168 17.4375L3.7168 17.4424C3.29778 17.8112 2.75124 18.0044 2.19824 18C1.64529 17.9956 1.10222 17.7941 0.689453 17.418C0.274176 17.0395 0.0221096 16.5097 0.0166016 15.9375C0.0111444 15.3651 0.253131 14.8303 0.662109 14.4443L0.667969 14.4395L6.28027 9.32422C6.46678 9.15423 6.46678 8.86041 6.28027 8.69043L0.672852 3.58008C0.253024 3.1972 -2.53011e-08 2.65988 0 2.08105C5.23504e-05 1.50226 0.253017 0.964873 0.672852 0.582031C1.09029 0.201694 1.64105 1.06247e-05 2.2002 0Z" fill="white"/>
</svg>
