<svg width="116" height="61" viewBox="0 0 116 61" fill="none" xmlns="http://www.w3.org/2000/svg">
<g opacity="0.3">
<path d="M36.1998 0C34.8998 0 33.7998 1.13198 33.7998 2.46974C33.7998 3.8075 34.8998 4.93944 36.1998 4.93944C37.4998 4.93944 38.5998 3.8075 38.5998 2.46974C38.5998 1.13198 37.4998 0 36.1998 0Z" fill="#00A4F4"/>
<path d="M25.1002 0C23.8002 0 22.7002 1.13198 22.7002 2.46974C22.7002 3.8075 23.8002 4.93944 25.1002 4.93944C26.4002 4.93944 27.5002 3.8075 27.5002 2.46974C27.6002 1.13198 26.5002 0 25.1002 0Z" fill="#00A4F4"/>
<path d="M14.1002 0C12.8002 0 11.7002 1.13198 11.7002 2.46974C11.7002 3.8075 12.8002 4.93944 14.1002 4.93944C15.4002 4.93944 16.5002 3.8075 16.5002 2.46974C16.5002 1.13198 15.4002 0 14.1002 0Z" fill="#00A4F4"/>
<path d="M36.1998 11.8359C34.8998 11.8359 33.7998 12.9679 33.7998 14.3056C33.7998 15.6434 34.8998 16.7754 36.1998 16.7754C37.4998 16.7754 38.5998 15.6434 38.5998 14.3056C38.5998 12.9679 37.4998 11.8359 36.1998 11.8359Z" fill="#00A4F4"/>
<path d="M25.1002 11.8359C23.8002 11.8359 22.7002 12.9679 22.7002 14.3056C22.7002 15.6434 23.8002 16.7754 25.1002 16.7754C26.4002 16.7754 27.5002 15.6434 27.5002 14.3056C27.5002 12.9679 26.5002 11.8359 25.1002 11.8359Z" fill="#00A4F4"/>
<path d="M14.1002 11.8359C12.8002 11.8359 11.7002 12.9679 11.7002 14.3056C11.7002 15.6434 12.8002 16.7754 14.1002 16.7754C15.4002 16.7754 16.5002 15.6434 16.5002 14.3056C16.5002 12.9679 15.4002 11.8359 14.1002 11.8359Z" fill="#00A4F4"/>
<path d="M38.5998 26.1416C38.5998 24.7776 37.5253 23.6719 36.1998 23.6719C34.8743 23.6719 33.7998 24.7776 33.7998 26.1416C33.7998 27.5056 34.8743 28.6113 36.1998 28.6113C37.5253 28.6113 38.5998 27.5056 38.5998 26.1416Z" fill="#00A4F4"/>
<path d="M27.5002 26.1416C27.5002 24.7776 26.4257 23.6719 25.1002 23.6719C23.7747 23.6719 22.7002 24.7776 22.7002 26.1416C22.7002 27.5056 23.7747 28.6113 25.1002 28.6113C26.4257 28.6113 27.5002 27.5056 27.5002 26.1416Z" fill="#00A4F4"/>
<path d="M16.5002 26.1416C16.5002 24.7776 15.4257 23.6719 14.1002 23.6719C12.7747 23.6719 11.7002 24.7776 11.7002 26.1416C11.7002 27.5056 12.7747 28.6113 14.1002 28.6113C15.4257 28.6113 16.5002 27.5056 16.5002 26.1416Z" fill="#00A4F4"/>
<path d="M36.1998 35.4053C34.8998 35.4053 33.7998 36.5372 33.7998 37.875C33.7998 39.2127 34.8998 40.3447 36.1998 40.3447C37.4998 40.3447 38.5998 39.2127 38.5998 37.875C38.5998 36.5372 37.4998 35.4053 36.1998 35.4053Z" fill="#00A4F4"/>
<path d="M25.1002 35.4053C23.8002 35.4053 22.7002 36.5372 22.7002 37.875C22.7002 39.2127 23.8002 40.3447 25.1002 40.3447C26.4002 40.3447 27.5002 39.2127 27.5002 37.875C27.5002 36.5372 26.5002 35.4053 25.1002 35.4053Z" fill="#00A4F4"/>
<path d="M14.1002 35.4053C12.8002 35.4053 11.7002 36.5372 11.7002 37.875C11.7002 39.2127 12.8002 40.3447 14.1002 40.3447C15.4002 40.3447 16.5002 39.2127 16.5002 37.875C16.5002 36.5372 15.4002 35.4053 14.1002 35.4053Z" fill="#00A4F4"/>
<path d="M36.1998 47.2412C34.8998 47.2412 33.7998 48.3732 33.7998 49.7109C33.7998 51.0487 34.8998 52.1806 36.1998 52.1806C37.4998 52.1806 38.5998 51.0487 38.5998 49.7109C38.5998 48.3732 37.4998 47.2412 36.1998 47.2412Z" fill="#00A4F4"/>
<path d="M25.1002 47.2412C23.8002 47.2412 22.7002 48.3732 22.7002 49.7109C22.7002 51.0487 23.8002 52.1806 25.1002 52.1806C26.4002 52.1806 27.5002 51.0487 27.5002 49.7109C27.6002 48.3732 26.5002 47.2412 25.1002 47.2412Z" fill="#00A4F4"/>
<path d="M14.1002 47.2412C12.8002 47.2412 11.7002 48.3732 11.7002 49.7109C11.7002 51.0487 12.8002 52.1806 14.1002 52.1806C15.4002 52.1806 16.5002 51.0487 16.5002 49.7109C16.5002 48.3732 15.4002 47.2412 14.1002 47.2412Z" fill="#00A4F4"/>
<path d="M113.6 5.04296C114.9 5.04296 116 3.91098 116 2.57322C116 1.23546 114.9 0.103516 113.6 0.103516C112.3 0.103516 111.2 1.23546 111.2 2.57322C111.2 3.91098 112.2 5.04296 113.6 5.04296Z" fill="#00A4F4"/>
<path d="M102.501 0C101.201 0 100.101 1.13198 100.101 2.46974C100.101 3.8075 101.201 4.93944 102.501 4.93944C103.801 4.93944 104.901 3.8075 104.901 2.46974C104.901 1.13198 103.901 0 102.501 0Z" fill="#00A4F4"/>
<path d="M91.5006 0C90.2006 0 89.1006 1.13198 89.1006 2.46974C89.1006 3.8075 90.2006 4.93944 91.5006 4.93944C92.8006 4.93944 93.9006 3.8075 93.9006 2.46974C93.9006 1.13198 92.8006 0 91.5006 0Z" fill="#00A4F4"/>
<path d="M80.4 0C79.1 0 78 1.13198 78 2.46974C78 3.8075 79.1 4.93944 80.4 4.93944C81.7 4.93944 82.8 3.8075 82.8 2.46974C82.8 1.13198 81.8 0 80.4 0Z" fill="#00A4F4"/>
<path d="M69.4 0C68.1 0 67 1.13198 67 2.46974C67 3.8075 68.1 4.93944 69.4 4.93944C70.7 4.93944 71.8 3.8075 71.8 2.46974C71.8 1.13198 70.7 0 69.4 0Z" fill="#00A4F4"/>
<path d="M58.3004 0C57.0004 0 55.9004 1.13198 55.9004 2.46974C55.9004 3.8075 57.0004 4.93944 58.3004 4.93944C59.6004 4.93944 60.7004 3.8075 60.7004 2.46974C60.7004 1.13198 59.6004 0 58.3004 0Z" fill="#00A4F4"/>
<path d="M47.1998 0C45.8998 0 44.7998 1.13198 44.7998 2.46974C44.7998 3.8075 45.8998 4.93944 47.1998 4.93944C48.4998 4.93944 49.5998 3.8075 49.5998 2.46974C49.6998 1.13198 48.5998 0 47.1998 0Z" fill="#00A4F4"/>
<path d="M113.6 11.8359C112.3 11.8359 111.2 12.9679 111.2 14.3056C111.2 15.6434 112.3 16.7754 113.6 16.7754C114.9 16.7754 116 15.6434 116 14.3056C116 12.9679 114.9 11.8359 113.6 11.8359Z" fill="#00A4F4"/>
<path d="M102.501 11.8359C101.201 11.8359 100.101 12.9679 100.101 14.3056C100.101 15.6434 101.201 16.7754 102.501 16.7754C103.801 16.7754 104.901 15.6434 104.901 14.3056C104.901 12.9679 103.901 11.8359 102.501 11.8359Z" fill="#00A4F4"/>
<path d="M91.5006 11.8359C90.2006 11.8359 89.1006 12.9679 89.1006 14.3056C89.1006 15.6434 90.2006 16.7754 91.5006 16.7754C92.8006 16.7754 93.9006 15.6434 93.9006 14.3056C93.9006 12.9679 92.8006 11.8359 91.5006 11.8359Z" fill="#00A4F4"/>
<path d="M80.4 11.8359C79.1 11.8359 78 12.9679 78 14.3056C78 15.6434 79.1 16.7754 80.4 16.7754C81.7 16.7754 82.8 15.6434 82.8 14.3056C82.8 12.9679 81.8 11.8359 80.4 11.8359Z" fill="#00A4F4"/>
<path d="M69.4 11.8359C68.1 11.8359 67 12.9679 67 14.3056C67 15.6434 68.1 16.7754 69.4 16.7754C70.7 16.7754 71.8 15.6434 71.8 14.3056C71.8 12.9679 70.7 11.8359 69.4 11.8359Z" fill="#00A4F4"/>
<path d="M58.3004 11.8359C57.0004 11.8359 55.9004 12.9679 55.9004 14.3056C55.9004 15.6434 57.0004 16.7754 58.3004 16.7754C59.6004 16.7754 60.7004 15.6434 60.7004 14.3056C60.7004 12.9679 59.6004 11.8359 58.3004 11.8359Z" fill="#00A4F4"/>
<path d="M47.1998 11.8359C45.8998 11.8359 44.7998 12.9679 44.7998 14.3056C44.7998 15.6434 45.8998 16.7754 47.1998 16.7754C48.4998 16.7754 49.5998 15.6434 49.5998 14.3056C49.5998 12.9679 48.5998 11.8359 47.1998 11.8359Z" fill="#00A4F4"/>
<path d="M113.6 23.6719C112.3 23.6719 111.2 24.8038 111.2 26.1416C111.2 27.4793 112.3 28.6113 113.6 28.6113C114.9 28.6113 116 27.4793 116 26.1416C116 24.8038 114.9 23.6719 113.6 23.6719Z" fill="#00A4F4"/>
<path d="M102.501 23.6719C101.201 23.6719 100.101 24.8038 100.101 26.1416C100.101 27.4793 101.201 28.6113 102.501 28.6113C103.801 28.6113 104.901 27.4793 104.901 26.1416C104.901 24.8038 103.901 23.6719 102.501 23.6719Z" fill="#00A4F4"/>
<path d="M91.5006 23.6719C90.2006 23.6719 89.1006 24.8038 89.1006 26.1416C89.1006 27.4793 90.2006 28.6113 91.5006 28.6113C92.8006 28.6113 93.9006 27.4793 93.9006 26.1416C93.9006 24.8038 92.8006 23.6719 91.5006 23.6719Z" fill="#00A4F4"/>
<path d="M80.4 23.6719C79.1 23.6719 78 24.8038 78 26.1416C78 27.4793 79.1 28.6113 80.4 28.6113C81.7 28.6113 82.8 27.4793 82.8 26.1416C82.8 24.8038 81.8 23.6719 80.4 23.6719Z" fill="#00A4F4"/>
<path d="M71.8 26.1416C71.8 24.7776 70.7255 23.6719 69.4 23.6719C68.0745 23.6719 67 24.7776 67 26.1416C67 27.5056 68.0745 28.6113 69.4 28.6113C70.7255 28.6113 71.8 27.5056 71.8 26.1416Z" fill="#00A4F4"/>
<path d="M58.3004 23.6719C57.0004 23.6719 55.9004 24.8038 55.9004 26.1416C55.9004 27.4793 57.0004 28.6113 58.3004 28.6113C59.6004 28.6113 60.7004 27.4793 60.7004 26.1416C60.7004 24.8038 59.6004 23.6719 58.3004 23.6719Z" fill="#00A4F4"/>
<path d="M47.1998 23.6719C45.8998 23.6719 44.7998 24.8038 44.7998 26.1416C44.7998 27.4793 45.8998 28.6113 47.1998 28.6113C48.4998 28.6113 49.5998 27.4793 49.5998 26.1416C49.6998 24.8038 48.5998 23.6719 47.1998 23.6719Z" fill="#00A4F4"/>
<path d="M113.6 35.4053C112.3 35.4053 111.2 36.5372 111.2 37.875C111.2 39.2127 112.3 40.3447 113.6 40.3447C114.9 40.3447 116 39.2127 116 37.875C116 36.5372 114.9 35.4053 113.6 35.4053Z" fill="#00A4F4"/>
<path d="M102.501 35.4053C101.201 35.4053 100.101 36.5372 100.101 37.875C100.101 39.2127 101.201 40.3447 102.501 40.3447C103.801 40.3447 104.901 39.2127 104.901 37.875C104.901 36.5372 103.901 35.4053 102.501 35.4053Z" fill="#00A4F4"/>
<path d="M91.5006 35.4053C90.2006 35.4053 89.1006 36.5372 89.1006 37.875C89.1006 39.2127 90.2006 40.3447 91.5006 40.3447C92.8006 40.3447 93.9006 39.2127 93.9006 37.875C93.9006 36.5372 92.8006 35.4053 91.5006 35.4053Z" fill="#00A4F4"/>
<path d="M80.4 35.4053C79.1 35.4053 78 36.5372 78 37.875C78 39.2127 79.1 40.3447 80.4 40.3447C81.7 40.3447 82.8 39.2127 82.8 37.875C82.8 36.5372 81.8 35.4053 80.4 35.4053Z" fill="#00A4F4"/>
<path d="M69.4 35.4053C68.1 35.4053 67 36.5372 67 37.875C67 39.2127 68.1 40.3447 69.4 40.3447C70.7 40.3447 71.8 39.2127 71.8 37.875C71.8 36.5372 70.7 35.4053 69.4 35.4053Z" fill="#00A4F4"/>
<path d="M58.3004 35.4053C57.0004 35.4053 55.9004 36.5372 55.9004 37.875C55.9004 39.2127 57.0004 40.3447 58.3004 40.3447C59.6004 40.3447 60.7004 39.2127 60.7004 37.875C60.7004 36.5372 59.6004 35.4053 58.3004 35.4053Z" fill="#00A4F4"/>
<path d="M47.1998 35.4053C45.8998 35.4053 44.7998 36.5372 44.7998 37.875C44.7998 39.2127 45.8998 40.3447 47.1998 40.3447C48.4998 40.3447 49.5998 39.2127 49.5998 37.875C49.5998 36.5372 48.5998 35.4053 47.1998 35.4053Z" fill="#00A4F4"/>
<path d="M113.6 47.2412C112.3 47.2412 111.2 48.3732 111.2 49.7109C111.2 51.0487 112.3 52.1806 113.6 52.1806C114.9 52.1806 116 51.0487 116 49.7109C116 48.3732 114.9 47.2412 113.6 47.2412Z" fill="#00A4F4"/>
<path d="M102.501 47.2412C101.201 47.2412 100.101 48.3732 100.101 49.7109C100.101 51.0487 101.201 52.1806 102.501 52.1806C103.801 52.1806 104.901 51.0487 104.901 49.7109C104.901 48.3732 103.901 47.2412 102.501 47.2412Z" fill="#00A4F4"/>
<path d="M91.5006 47.2412C90.2006 47.2412 89.1006 48.3732 89.1006 49.7109C89.1006 51.0487 90.2006 52.1806 91.5006 52.1806C92.8006 52.1806 93.9006 51.0487 93.9006 49.7109C93.9006 48.3732 92.8006 47.2412 91.5006 47.2412Z" fill="#00A4F4"/>
<path d="M80.4 47.2412C79.1 47.2412 78 48.3732 78 49.7109C78 51.0487 79.1 52.1806 80.4 52.1806C81.7 52.1806 82.8 51.0487 82.8 49.7109C82.8 48.3732 81.8 47.2412 80.4 47.2412Z" fill="#00A4F4"/>
<path d="M69.4 47.2412C68.1 47.2412 67 48.3732 67 49.7109C67 51.0487 68.1 52.1806 69.4 52.1806C70.7 52.1806 71.8 51.0487 71.8 49.7109C71.8 48.3732 70.7 47.2412 69.4 47.2412Z" fill="#00A4F4"/>
<path d="M58.3004 47.2412C57.0004 47.2412 55.9004 48.3732 55.9004 49.7109C55.9004 51.0487 57.0004 52.1806 58.3004 52.1806C59.6004 52.1806 60.7004 51.0487 60.7004 49.7109C60.7004 48.3732 59.6004 47.2412 58.3004 47.2412Z" fill="#00A4F4"/>
<path d="M47.1998 47.2412C45.8998 47.2412 44.7998 48.3732 44.7998 49.7109C44.7998 51.0487 45.8998 52.1806 47.1998 52.1806C48.4998 52.1806 49.5998 51.0487 49.5998 49.7109C49.6998 48.3732 48.5998 47.2412 47.1998 47.2412Z" fill="#00A4F4"/>
<path d="M24.4996 8.64551C23.1996 8.64551 22.0996 9.77745 22.0996 11.1152C22.0996 12.453 23.1996 13.5849 24.4996 13.5849C25.7996 13.5849 26.8996 12.453 26.8996 11.1152C26.8996 9.77745 25.7996 8.64551 24.4996 8.64551Z" fill="#0069AB"/>
<path d="M13.4 8.64551C12.1 8.64551 11 9.77745 11 11.1152C11 12.453 12.1 13.5849 13.4 13.5849C14.7 13.5849 15.8 12.453 15.8 11.1152C15.8 9.77745 14.8 8.64551 13.4 8.64551Z" fill="#0069AB"/>
<path d="M2.39999 8.64551C1.09999 8.64551 0 9.77745 0 11.1152C0 12.453 1.09999 13.5849 2.39999 13.5849C3.69999 13.5849 4.79999 12.453 4.79999 11.1152C4.79999 9.77745 3.69999 8.64551 2.39999 8.64551Z" fill="#0069AB"/>
<path d="M24.4996 20.4814C23.1996 20.4814 22.0996 21.6134 22.0996 22.9512C22.0996 24.2889 23.1996 25.4209 24.4996 25.4209C25.7996 25.4209 26.8996 24.2889 26.8996 22.9512C26.8996 21.6134 25.7996 20.4814 24.4996 20.4814Z" fill="#0069AB"/>
<path d="M13.4 20.4814C12.1 20.4814 11 21.6134 11 22.9512C11 24.2889 12.1 25.4209 13.4 25.4209C14.7 25.4209 15.8 24.2889 15.8 22.9512C15.8 21.6134 14.8 20.4814 13.4 20.4814Z" fill="#0069AB"/>
<path d="M2.39999 20.4814C1.09999 20.4814 0 21.6134 0 22.9512C0 24.2889 1.09999 25.4209 2.39999 25.4209C3.69999 25.4209 4.79999 24.2889 4.79999 22.9512C4.79999 21.6134 3.69999 20.4814 2.39999 20.4814Z" fill="#0069AB"/>
<path d="M24.4996 32.2144C23.1996 32.2144 22.0996 33.3463 22.0996 34.6841C22.0996 36.0218 23.1996 37.1538 24.4996 37.1538C25.7996 37.1538 26.8996 36.0218 26.8996 34.6841C26.8996 33.3463 25.7996 32.2144 24.4996 32.2144Z" fill="#0069AB"/>
<path d="M13.4 32.2144C12.1 32.2144 11 33.3463 11 34.6841C11 36.0218 12.1 37.1538 13.4 37.1538C14.7 37.1538 15.8 36.0218 15.8 34.6841C15.8 33.3463 14.8 32.2144 13.4 32.2144Z" fill="#0069AB"/>
<path d="M2.39999 32.2144C1.09999 32.2144 0 33.3463 0 34.6841C0 36.0218 1.09999 37.1538 2.39999 37.1538C3.69999 37.1538 4.79999 36.0218 4.79999 34.6841C4.79999 33.3463 3.69999 32.2144 2.39999 32.2144Z" fill="#0069AB"/>
<path d="M24.4996 44.0503C23.1996 44.0503 22.0996 45.1822 22.0996 46.52C22.0996 47.8578 23.1996 48.9897 24.4996 48.9897C25.7996 48.9897 26.8996 47.8578 26.8996 46.52C26.8996 45.1822 25.7996 44.0503 24.4996 44.0503Z" fill="#0069AB"/>
<path d="M13.4 44.0503C12.1 44.0503 11 45.1822 11 46.52C11 47.8578 12.1 48.9897 13.4 48.9897C14.7 48.9897 15.8 47.8578 15.8 46.52C15.8 45.1822 14.8 44.0503 13.4 44.0503Z" fill="#0069AB"/>
<path d="M2.39999 44.0503C1.09999 44.0503 0 45.1822 0 46.52C0 47.8578 1.09999 48.9897 2.39999 48.9897C3.69999 48.9897 4.79999 47.8578 4.79999 46.52C4.79999 45.1822 3.69999 44.0503 2.39999 44.0503Z" fill="#0069AB"/>
<path d="M24.4996 55.7832C23.1996 55.7832 22.0996 56.9152 22.0996 58.2529C22.0996 59.5907 23.1996 60.7226 24.4996 60.7226C25.7996 60.7226 26.8996 59.5907 26.8996 58.2529C26.8996 56.9152 25.7996 55.7832 24.4996 55.7832Z" fill="#0069AB"/>
<path d="M13.4 55.7832C12.1 55.7832 11 56.9152 11 58.2529C11 59.5907 12.1 60.7226 13.4 60.7226C14.7 60.7226 15.8 59.5907 15.8 58.2529C15.8 56.9152 14.8 55.7832 13.4 55.7832Z" fill="#0069AB"/>
<path d="M2.39999 55.7832C1.09999 55.7832 0 56.9152 0 58.2529C0 59.5907 1.09999 60.7226 2.39999 60.7226C3.69999 60.7226 4.79999 59.5907 4.79999 58.2529C4.79999 56.9152 3.69999 55.7832 2.39999 55.7832Z" fill="#0069AB"/>
<path d="M101.9 13.6875C103.2 13.6875 104.3 12.5555 104.3 11.2178C104.3 9.88001 103.2 8.74805 101.9 8.74805C100.6 8.74805 99.5 9.88001 99.5 11.2178C99.5 12.5555 100.5 13.6875 101.9 13.6875Z" fill="#0069AB"/>
<path d="M93.2004 11.1152C93.2004 9.75123 92.1259 8.64551 90.8004 8.64551C89.4749 8.64551 88.4004 9.75123 88.4004 11.1152C88.4004 12.4792 89.4749 13.5849 90.8004 13.5849C92.1259 13.5849 93.2004 12.4792 93.2004 11.1152Z" fill="#0069AB"/>
<path d="M79.8004 8.64551C78.5004 8.64551 77.4004 9.77745 77.4004 11.1152C77.4004 12.453 78.5004 13.5849 79.8004 13.5849C81.1004 13.5849 82.2004 12.453 82.2004 11.1152C82.2004 9.77745 81.1004 8.64551 79.8004 8.64551Z" fill="#0069AB"/>
<path d="M71.0998 11.1152C71.0998 9.75123 70.0253 8.64551 68.6998 8.64551C67.3743 8.64551 66.2998 9.75123 66.2998 11.1152C66.2998 12.4792 67.3743 13.5849 68.6998 13.5849C70.0253 13.5849 71.0998 12.4792 71.0998 11.1152Z" fill="#0069AB"/>
<path d="M60.0002 11.1152C60.0002 9.75123 58.9257 8.64551 57.6002 8.64551C56.2747 8.64551 55.2002 9.75123 55.2002 11.1152C55.2002 12.4792 56.2747 13.5849 57.6002 13.5849C58.9257 13.5849 60.0002 12.4792 60.0002 11.1152Z" fill="#0069AB"/>
<path d="M46.6002 8.64551C45.3002 8.64551 44.2002 9.77745 44.2002 11.1152C44.2002 12.453 45.3002 13.5849 46.6002 13.5849C47.9002 13.5849 49.0002 12.453 49.0002 11.1152C49.0002 9.77745 47.9002 8.64551 46.6002 8.64551Z" fill="#0069AB"/>
<path d="M37.8996 11.1152C37.8996 9.75123 36.8251 8.64551 35.4996 8.64551C34.1741 8.64551 33.0996 9.75123 33.0996 11.1152C33.0996 12.4792 34.1741 13.5849 35.4996 13.5849C36.8251 13.5849 37.8996 12.4792 37.8996 11.1152Z" fill="#0069AB"/>
<path d="M101.9 20.4814C100.6 20.4814 99.5 21.6134 99.5 22.9512C99.5 24.2889 100.6 25.4209 101.9 25.4209C103.2 25.4209 104.3 24.2889 104.3 22.9512C104.3 21.6134 103.2 20.4814 101.9 20.4814Z" fill="#0069AB"/>
<path d="M93.2004 22.9512C93.2004 21.5872 92.1259 20.4814 90.8004 20.4814C89.4749 20.4814 88.4004 21.5872 88.4004 22.9512C88.4004 24.3152 89.4749 25.4209 90.8004 25.4209C92.1259 25.4209 93.2004 24.3152 93.2004 22.9512Z" fill="#0069AB"/>
<path d="M79.8004 20.4814C78.5004 20.4814 77.4004 21.6134 77.4004 22.9512C77.4004 24.2889 78.5004 25.4209 79.8004 25.4209C81.1004 25.4209 82.2004 24.2889 82.2004 22.9512C82.2004 21.6134 81.1004 20.4814 79.8004 20.4814Z" fill="#0069AB"/>
<path d="M71.0998 22.9512C71.0998 21.5872 70.0253 20.4814 68.6998 20.4814C67.3743 20.4814 66.2998 21.5872 66.2998 22.9512C66.2998 24.3152 67.3743 25.4209 68.6998 25.4209C70.0253 25.4209 71.0998 24.3152 71.0998 22.9512Z" fill="#0069AB"/>
<path d="M60.0002 22.9512C60.0002 21.5872 58.9257 20.4814 57.6002 20.4814C56.2747 20.4814 55.2002 21.5872 55.2002 22.9512C55.2002 24.3152 56.2747 25.4209 57.6002 25.4209C58.9257 25.4209 60.0002 24.3152 60.0002 22.9512Z" fill="#0069AB"/>
<path d="M46.6002 20.4814C45.3002 20.4814 44.2002 21.6134 44.2002 22.9512C44.2002 24.2889 45.3002 25.4209 46.6002 25.4209C47.9002 25.4209 49.0002 24.2889 49.0002 22.9512C49.0002 21.6134 47.9002 20.4814 46.6002 20.4814Z" fill="#0069AB"/>
<path d="M37.8996 22.9512C37.8996 21.5872 36.8251 20.4814 35.4996 20.4814C34.1741 20.4814 33.0996 21.5872 33.0996 22.9512C33.0996 24.3152 34.1741 25.4209 35.4996 25.4209C36.8251 25.4209 37.8996 24.3152 37.8996 22.9512Z" fill="#0069AB"/>
<path d="M101.9 32.2144C100.6 32.2144 99.5 33.3463 99.5 34.6841C99.5 36.0218 100.6 37.1538 101.9 37.1538C103.2 37.1538 104.3 36.0218 104.3 34.6841C104.3 33.3463 103.2 32.2144 101.9 32.2144Z" fill="#0069AB"/>
<path d="M90.8004 32.2144C89.5004 32.2144 88.4004 33.3463 88.4004 34.6841C88.4004 36.0218 89.5004 37.1538 90.8004 37.1538C92.1004 37.1538 93.2004 36.0218 93.2004 34.6841C93.2004 33.3463 92.2004 32.2144 90.8004 32.2144Z" fill="#0069AB"/>
<path d="M79.8004 32.2144C78.5004 32.2144 77.4004 33.3463 77.4004 34.6841C77.4004 36.0218 78.5004 37.1538 79.8004 37.1538C81.1004 37.1538 82.2004 36.0218 82.2004 34.6841C82.2004 33.3463 81.1004 32.2144 79.8004 32.2144Z" fill="#0069AB"/>
<path d="M68.6998 32.2144C67.3998 32.2144 66.2998 33.3463 66.2998 34.6841C66.2998 36.0218 67.3998 37.1538 68.6998 37.1538C69.9998 37.1538 71.0998 36.0218 71.0998 34.6841C71.0998 33.3463 69.9998 32.2144 68.6998 32.2144Z" fill="#0069AB"/>
<path d="M57.6002 32.2144C56.3002 32.2144 55.2002 33.3463 55.2002 34.6841C55.2002 36.0218 56.3002 37.1538 57.6002 37.1538C58.9002 37.1538 60.0002 36.0218 60.0002 34.6841C60.1002 33.3463 59.0002 32.2144 57.6002 32.2144Z" fill="#0069AB"/>
<path d="M46.6002 32.2144C45.3002 32.2144 44.2002 33.3463 44.2002 34.6841C44.2002 36.0218 45.3002 37.1538 46.6002 37.1538C47.9002 37.1538 49.0002 36.0218 49.0002 34.6841C49.0002 33.3463 47.9002 32.2144 46.6002 32.2144Z" fill="#0069AB"/>
<path d="M35.4996 32.2144C34.1996 32.2144 33.0996 33.3463 33.0996 34.6841C33.0996 36.0218 34.1996 37.1538 35.4996 37.1538C36.7996 37.1538 37.8996 36.0218 37.8996 34.6841C37.9996 33.3463 36.8996 32.2144 35.4996 32.2144Z" fill="#0069AB"/>
<path d="M101.9 44.0503C100.6 44.0503 99.5 45.1822 99.5 46.52C99.5 47.8578 100.6 48.9897 101.9 48.9897C103.2 48.9897 104.3 47.8578 104.3 46.52C104.3 45.1822 103.2 44.0503 101.9 44.0503Z" fill="#0069AB"/>
<path d="M90.8004 44.0503C89.5004 44.0503 88.4004 45.1822 88.4004 46.52C88.4004 47.8578 89.5004 48.9897 90.8004 48.9897C92.1004 48.9897 93.2004 47.8578 93.2004 46.52C93.2004 45.1822 92.2004 44.0503 90.8004 44.0503Z" fill="#0069AB"/>
<path d="M79.8004 44.0503C78.5004 44.0503 77.4004 45.1822 77.4004 46.52C77.4004 47.8578 78.5004 48.9897 79.8004 48.9897C81.1004 48.9897 82.2004 47.8578 82.2004 46.52C82.2004 45.1822 81.1004 44.0503 79.8004 44.0503Z" fill="#0069AB"/>
<path d="M68.6998 44.0503C67.3998 44.0503 66.2998 45.1822 66.2998 46.52C66.2998 47.8578 67.3998 48.9897 68.6998 48.9897C69.9998 48.9897 71.0998 47.8578 71.0998 46.52C71.0998 45.1822 69.9998 44.0503 68.6998 44.0503Z" fill="#0069AB"/>
<path d="M57.6002 44.0503C56.3002 44.0503 55.2002 45.1822 55.2002 46.52C55.2002 47.8578 56.3002 48.9897 57.6002 48.9897C58.9002 48.9897 60.0002 47.8578 60.0002 46.52C60.1002 45.1822 59.0002 44.0503 57.6002 44.0503Z" fill="#0069AB"/>
<path d="M46.6002 44.0503C45.3002 44.0503 44.2002 45.1822 44.2002 46.52C44.2002 47.8578 45.3002 48.9897 46.6002 48.9897C47.9002 48.9897 49.0002 47.8578 49.0002 46.52C49.0002 45.1822 47.9002 44.0503 46.6002 44.0503Z" fill="#0069AB"/>
<path d="M35.4996 44.0503C34.1996 44.0503 33.0996 45.1822 33.0996 46.52C33.0996 47.8578 34.1996 48.9897 35.4996 48.9897C36.7996 48.9897 37.8996 47.8578 37.8996 46.52C37.9996 45.1822 36.8996 44.0503 35.4996 44.0503Z" fill="#0069AB"/>
<path d="M101.9 55.7832C100.6 55.7832 99.5 56.9152 99.5 58.2529C99.5 59.5907 100.6 60.7226 101.9 60.7226C103.2 60.7226 104.3 59.5907 104.3 58.2529C104.3 56.9152 103.2 55.7832 101.9 55.7832Z" fill="#0069AB"/>
<path d="M90.8004 55.7832C89.5004 55.7832 88.4004 56.9152 88.4004 58.2529C88.4004 59.5907 89.5004 60.7226 90.8004 60.7226C92.1004 60.7226 93.2004 59.5907 93.2004 58.2529C93.2004 56.9152 92.2004 55.7832 90.8004 55.7832Z" fill="#0069AB"/>
<path d="M79.8004 55.7832C78.5004 55.7832 77.4004 56.9152 77.4004 58.2529C77.4004 59.5907 78.5004 60.7226 79.8004 60.7226C81.1004 60.7226 82.2004 59.5907 82.2004 58.2529C82.2004 56.9152 81.1004 55.7832 79.8004 55.7832Z" fill="#0069AB"/>
<path d="M68.6998 55.7832C67.3998 55.7832 66.2998 56.9152 66.2998 58.2529C66.2998 59.5907 67.3998 60.7226 68.6998 60.7226C69.9998 60.7226 71.0998 59.5907 71.0998 58.2529C71.0998 56.9152 69.9998 55.7832 68.6998 55.7832Z" fill="#0069AB"/>
<path d="M57.6002 55.7832C56.3002 55.7832 55.2002 56.9152 55.2002 58.2529C55.2002 59.5907 56.3002 60.7226 57.6002 60.7226C58.9002 60.7226 60.0002 59.5907 60.0002 58.2529C60.0002 56.9152 59.0002 55.7832 57.6002 55.7832Z" fill="#0069AB"/>
<path d="M46.6002 55.7832C45.3002 55.7832 44.2002 56.9152 44.2002 58.2529C44.2002 59.5907 45.3002 60.7226 46.6002 60.7226C47.9002 60.7226 49.0002 59.5907 49.0002 58.2529C49.0002 56.9152 47.9002 55.7832 46.6002 55.7832Z" fill="#0069AB"/>
<path d="M35.4996 55.7832C34.1996 55.7832 33.0996 56.9152 33.0996 58.2529C33.0996 59.5907 34.1996 60.7226 35.4996 60.7226C36.7996 60.7226 37.8996 59.5907 37.8996 58.2529C37.8996 56.9152 36.8996 55.7832 35.4996 55.7832Z" fill="#0069AB"/>
</g>
</svg>
