<svg width="126" height="128" viewBox="0 0 126 128" fill="none" xmlns="http://www.w3.org/2000/svg">
<g opacity="0.7">
<path d="M85.2397 11.1131C82.7587 12.3854 79.746 11.4766 78.3283 8.93196C77.0878 6.3873 77.9739 3.29734 80.4549 1.84325C81.341 1.47972 82.227 1.1162 83.1131 1.29796C84.1764 1.66148 85.0625 2.02501 85.9486 2.38853C86.4802 2.75206 87.0118 3.29734 87.3663 4.02439C88.6068 6.75082 87.7207 9.84077 85.2397 11.1131Z" fill="url(#paint0_linear_6008_208)"/>
<path d="M87.5438 26.5636C86.3033 24.019 87.1894 20.929 89.6704 19.4749C92.1514 18.2026 95.1641 19.1114 96.5818 21.6561C97.8223 24.2007 96.9362 27.2907 94.4552 28.7448C91.9742 30.1989 88.7843 29.1083 87.5438 26.5636Z" fill="url(#paint1_linear_6008_208)"/>
<path d="M96.7594 44.1931C95.5189 41.6485 96.4049 38.5585 98.8859 37.1044C101.367 35.8321 104.38 36.7409 105.797 39.2856C107.038 41.8302 106.152 44.9202 103.671 46.3743C101.013 47.6466 97.9999 46.7378 96.7594 44.1931Z" fill="url(#paint2_linear_6008_208)"/>
<path d="M105.975 61.8244C104.734 59.2797 105.62 56.1898 108.101 54.7357C110.583 53.4633 113.595 54.3722 115.013 56.9168C116.253 59.4615 115.367 62.5514 112.886 64.0055C110.228 65.2779 107.215 64.3691 105.975 61.8244Z" fill="url(#paint3_linear_6008_208)"/>
<path d="M115.013 79.2746C113.773 76.7299 114.659 73.64 117.14 72.1859C119.621 70.9136 122.633 71.8224 124.051 74.367C124.405 75.0941 124.583 75.8211 124.583 76.3664C124.405 77.457 124.051 78.3658 123.874 79.4564C123.342 80.1834 122.81 80.9105 121.924 81.274C119.443 82.7281 116.431 81.8193 115.013 79.2746Z" fill="url(#paint4_linear_6008_208)"/>
<path d="M98.1766 9.47647C98.1766 9.29471 97.9993 9.11295 97.9993 9.11295C99.4171 10.0218 100.835 11.1123 102.253 12.2029C100.658 12.0211 99.0626 11.1123 98.1766 9.47647Z" fill="url(#paint5_linear_6008_208)"/>
<path d="M114.303 29.1082C111.822 30.3805 108.81 29.4717 107.392 26.927C106.152 24.3824 107.038 21.2924 109.519 19.8383C109.696 19.6566 109.873 19.6566 110.05 19.6566C112.177 22.2012 114.126 24.7457 115.898 27.6539C115.544 28.1992 114.835 28.7447 114.303 29.1082Z" fill="url(#paint6_linear_6008_208)"/>
<path d="M123.341 46.7389C120.86 48.0112 117.848 47.1026 116.43 44.5579C115.19 42.0133 116.076 38.9231 118.557 37.469C119.265 37.1055 119.974 36.9239 120.683 36.9239C121.924 40.0139 122.987 43.1038 123.873 46.3756C123.696 46.5573 123.519 46.5571 123.341 46.7389Z" fill="url(#paint7_linear_6008_208)"/>
<path d="M125.823 57.2799C126 59.0975 126 60.9151 126 62.551C126 62.3692 125.823 62.1874 125.823 62.1874C124.937 60.5516 124.937 58.734 125.823 57.2799Z" fill="url(#paint8_linear_6008_208)"/>
<path d="M16.8354 26.199C15.0633 27.2896 12.7595 26.926 11.3417 25.6537C13.2911 22.9273 15.4177 20.2008 17.7215 17.6561C18.2531 18.0196 18.6076 18.565 18.962 19.1103C20.2025 21.6549 19.3164 24.9266 16.8354 26.199Z" fill="url(#paint9_linear_6008_208)"/>
<path d="M27.9993 36.742C29.2398 39.2866 28.3537 42.3766 25.8727 43.8307C23.3917 45.103 20.379 44.1942 18.9613 41.6495C17.7208 39.1049 18.6069 36.0149 21.0879 34.5608C23.5689 33.2885 26.7588 34.1973 27.9993 36.742Z" fill="url(#paint10_linear_6008_208)"/>
<path d="M37.2148 54.3732C38.4553 56.9179 37.5692 60.0078 35.0882 61.4619C32.6072 62.7343 29.5946 61.8255 28.1768 59.2808C26.9363 56.7361 27.8224 53.6462 30.3034 52.1921C32.7844 50.9197 35.7971 51.8285 37.2148 54.3732Z" fill="url(#paint11_linear_6008_208)"/>
<path d="M46.4303 71.8217C47.6708 74.3663 46.7847 77.4563 44.3037 78.9104C41.8227 80.1827 38.8101 79.2739 37.3923 76.7292C36.1518 74.1846 37.0379 71.0946 39.5189 69.6405C41.9999 68.3682 45.0126 69.277 46.4303 71.8217Z" fill="url(#paint12_linear_6008_208)"/>
<path d="M55.6458 89.4529C56.8863 91.9976 56.0003 95.0875 53.5193 96.5416C51.0383 97.814 48.0256 96.9052 46.6079 94.3605C45.3674 91.8158 46.2534 88.7259 48.7345 87.2718C51.2155 85.9994 54.2281 86.9082 55.6458 89.4529Z" fill="url(#paint13_linear_6008_208)"/>
<path d="M64.6831 107.084C65.9236 109.629 65.0375 112.719 62.5565 114.173C60.0755 115.445 57.0629 114.536 55.6451 111.992C54.4046 109.447 55.2907 106.357 57.7717 104.903C60.4299 103.631 63.4426 104.54 64.6831 107.084Z" fill="url(#paint14_linear_6008_208)"/>
<path d="M67.1646 122.533C69.6456 121.26 72.6583 122.169 74.076 124.714C74.4305 125.259 74.6077 125.986 74.6077 126.531C71.2406 127.258 67.8735 127.44 64.5064 127.622C64.3292 125.441 65.2153 123.441 67.1646 122.533Z" fill="url(#paint15_linear_6008_208)"/>
<path d="M38.6322 19.4747C39.8727 22.0194 38.9866 25.1093 36.5056 26.5634C34.0246 27.8358 31.0119 26.9269 29.5942 24.3823C28.3537 21.8376 29.2398 18.7477 31.7208 17.2936C34.379 16.0212 37.3917 17.1118 38.6322 19.4747Z" fill="url(#paint16_linear_6008_208)"/>
<path d="M38.988 42.0134C37.7475 39.4687 38.6335 36.3788 41.1146 34.9247C43.5956 33.6524 46.6082 34.5612 48.0259 37.1058C49.2664 39.6505 48.3804 42.7405 45.8994 44.1945C43.4184 45.4669 40.2285 44.5581 38.988 42.0134Z" fill="url(#paint17_linear_6008_208)"/>
<path d="M48.2018 59.6429C46.9613 57.0982 47.8473 54.0083 50.3283 52.5542C52.8094 51.2818 55.822 52.1907 57.2397 54.7353C58.4802 57.28 57.5942 60.3699 55.1132 61.824C52.4549 63.0964 49.4423 62.1876 48.2018 59.6429Z" fill="url(#paint18_linear_6008_208)"/>
<path d="M57.4173 77.0931C56.1768 74.5484 57.0629 71.4585 59.5439 70.0044C62.0249 68.7321 65.0375 69.6409 66.4553 72.1855C67.6958 74.7302 66.8097 77.8202 64.3287 79.2742C61.6704 80.5466 58.6578 79.6378 57.4173 77.0931Z" fill="url(#paint19_linear_6008_208)"/>
<path d="M75.4943 89.8168C76.7348 92.3615 75.8487 95.4514 73.3677 96.9055C70.8867 98.1778 67.874 97.269 66.4563 94.7244C65.2158 92.1797 66.1019 89.0898 68.5829 87.6357C71.0639 86.3633 74.0765 87.2721 75.4943 89.8168Z" fill="url(#paint20_linear_6008_208)"/>
<path d="M84.5315 107.446C85.772 109.991 84.886 113.081 82.4049 114.535C79.9239 115.807 76.9113 114.899 75.4936 112.354C74.2531 109.809 75.1391 106.719 77.6201 105.265C80.2784 103.993 83.291 104.902 84.5315 107.446Z" fill="url(#paint21_linear_6008_208)"/>
<path d="M6.55695 71.094C7.79745 73.6387 6.91138 76.7287 4.43037 78.1827C3.5443 78.728 2.481 78.9098 1.59492 78.728C0.708847 75.4563 0.177216 72.1846 0 68.9129C2.48101 67.6406 5.31644 68.7311 6.55695 71.094Z" fill="url(#paint22_linear_6008_208)"/>
<path d="M9.03761 86.544C11.5186 85.2717 14.5313 86.1805 15.949 88.7252C17.1895 91.2698 16.3034 94.3598 13.8224 95.8139C12.0503 96.9045 9.74647 96.5409 8.32875 95.2686C7.97432 94.7233 7.61989 93.9963 7.26546 93.451C6.91103 92.9057 6.73382 92.1786 6.37939 91.6334C6.20217 89.634 7.08824 87.6346 9.03761 86.544Z" fill="url(#paint23_linear_6008_208)"/>
<path d="M24.9882 106.175C26.2287 108.538 25.3426 111.628 23.0388 113.082C20.5578 111.083 18.254 108.72 15.9502 106.175C16.4819 105.267 17.1907 104.54 18.0768 103.994C20.5578 102.722 23.7477 103.631 24.9882 106.175Z" fill="url(#paint24_linear_6008_208)"/>
<path d="M6.026 43.2849C4.96272 43.8302 3.54499 44.0119 2.4817 43.8302C3.54499 40.5585 4.60828 37.4685 6.20322 34.3786C6.91207 34.9239 7.62093 35.4691 8.15257 36.3779C9.39308 38.9226 8.50701 42.0126 6.026 43.2849Z" fill="url(#paint25_linear_6008_208)"/>
<path d="M17.3664 54.0098C18.6069 56.5544 17.7208 59.6444 15.2398 61.0985C12.7588 62.3708 9.74613 61.462 8.32841 58.9174C6.91069 56.3727 7.97398 53.2827 10.455 51.8286C12.936 50.3745 15.9486 51.4651 17.3664 54.0098Z" fill="url(#paint26_linear_6008_208)"/>
<path d="M26.5819 71.4578C27.8224 74.0024 26.9363 77.0924 24.4553 78.5465C21.9743 79.8188 18.9617 78.91 17.5439 76.3653C16.3034 73.8207 17.1895 70.7307 19.6705 69.2766C22.1515 68.0043 25.1642 68.9131 26.5819 71.4578Z" fill="url(#paint27_linear_6008_208)"/>
<path d="M35.6209 89.089C36.8614 91.6337 35.9753 94.7237 33.4943 96.1778C31.0133 97.4501 28.0006 96.5413 26.5829 93.9966C25.3424 91.452 26.2285 88.362 28.7095 86.9079C31.3677 85.6356 34.3804 86.5444 35.6209 89.089Z" fill="url(#paint28_linear_6008_208)"/>
<path d="M44.8347 106.539C46.0752 109.084 45.1891 112.174 42.7081 113.628C40.2271 114.9 37.2144 113.992 35.7967 111.447C34.5562 108.902 35.4423 105.812 37.9233 104.358C40.4043 103.086 43.5942 104.176 44.8347 106.539Z" fill="url(#paint29_linear_6008_208)"/>
<path d="M54.0504 124.169C54.582 125.078 54.7592 125.986 54.582 126.895C51.215 126.532 48.0251 125.805 44.8352 124.714C45.1896 123.623 46.0757 122.533 47.139 121.988C49.62 120.715 52.8099 121.624 54.0504 124.169Z" fill="url(#paint30_linear_6008_208)"/>
<path d="M47.3169 9.47647C44.8359 10.7488 41.8233 9.83999 40.4055 7.29532C39.5195 5.65947 39.6967 3.84185 40.4055 2.20599C42.5321 1.29719 44.6587 0.570136 46.9625 0.0248503C47.8486 0.570136 48.7346 1.29719 49.2663 2.20599C50.684 4.93242 49.7979 8.02237 47.3169 9.47647Z" fill="url(#paint31_linear_6008_208)"/>
<path d="M49.6209 24.927C48.3804 22.3824 49.2664 19.2924 51.7475 17.8384C54.2285 16.566 57.2411 17.4748 58.6588 20.0194C59.8993 22.5641 59.0133 25.6541 56.5323 27.1082C54.0512 28.3805 51.0386 27.2899 49.6209 24.927Z" fill="url(#paint32_linear_6008_208)"/>
<path d="M58.8347 42.3755C57.5942 39.8308 58.4802 36.7409 60.9612 35.2868C63.4422 34.0145 66.4549 34.9233 67.8726 37.4679C69.1131 40.0126 68.2271 43.1026 65.746 44.5567C63.265 45.829 60.2524 44.9202 58.8347 42.3755Z" fill="url(#paint33_linear_6008_208)"/>
<path d="M68.0502 60.0068C66.8097 57.4621 67.6958 54.3722 70.1768 52.9181C72.6578 51.6457 75.6704 52.5545 77.0882 55.0992C78.3287 57.6439 77.4426 60.7338 74.9616 62.1879C72.4806 63.4603 69.2907 62.5514 68.0502 60.0068Z" fill="url(#paint34_linear_6008_208)"/>
<path d="M77.2657 77.457C76.0252 74.9123 76.9113 71.8224 79.3923 70.3683C81.8733 69.0959 84.886 70.0047 86.3037 72.5494C87.5442 75.0941 86.6581 78.184 84.1771 79.6381C81.5189 81.0922 78.5062 80.0016 77.2657 77.457Z" fill="url(#paint35_linear_6008_208)"/>
<path d="M86.303 95.0865C85.0625 92.5418 85.9486 89.4519 88.4296 87.9978C90.9106 86.7254 93.9232 87.6342 95.3409 90.1789C96.5814 92.7236 95.6954 95.8135 93.2144 97.2676C90.7334 98.5399 87.7207 97.6311 86.303 95.0865Z" fill="url(#paint36_linear_6008_208)"/>
<path d="M95.5187 112.718C94.2782 110.173 95.1643 107.083 97.6453 105.629C100.126 104.357 103.139 105.266 104.557 107.81C105.088 108.901 105.266 109.991 105.088 111.082C103.493 112.536 101.544 114.172 99.7718 115.444C97.9997 115.262 96.4048 114.354 95.5187 112.718Z" fill="url(#paint37_linear_6008_208)"/>
<path d="M60.4303 7.65968C59.1898 5.11502 60.0759 2.02506 62.5569 0.570974C65.0379 -0.701359 68.0505 0.207452 69.4683 2.75211C70.7088 5.29678 69.8227 8.38675 67.3417 9.84085C64.6834 11.1132 61.6708 10.2044 60.4303 7.65968Z" fill="url(#paint38_linear_6008_208)"/>
<path d="M69.4676 25.2909C68.2271 22.7463 69.1131 19.6563 71.5941 18.2022C74.0751 16.9299 77.0878 17.8387 78.5055 20.3833C79.746 22.928 78.86 26.018 76.3789 27.4721C73.8979 28.7444 70.8853 27.8356 69.4676 25.2909Z" fill="url(#paint39_linear_6008_208)"/>
<path d="M78.6831 42.7394C77.4426 40.1947 78.3287 37.1048 80.8097 35.6507C83.2907 34.3783 86.3033 35.2872 87.721 37.8318C88.9616 40.3765 88.0755 43.4664 85.5945 44.9205C83.1135 46.1929 80.1008 45.2841 78.6831 42.7394Z" fill="url(#paint40_linear_6008_208)"/>
<path d="M87.8986 60.3707C86.6581 57.826 87.5442 54.736 90.0252 53.2819C92.5062 52.0096 95.5189 52.9184 96.9366 55.4631C98.1771 58.0077 97.291 61.0977 94.81 62.5518C92.329 63.8241 89.1391 62.9153 87.8986 60.3707Z" fill="url(#paint41_linear_6008_208)"/>
<path d="M97.1141 78.0019C95.8736 75.4572 96.7597 72.3673 99.2407 70.9132C101.722 69.6409 104.734 70.5497 106.152 73.0943C107.393 75.639 106.507 78.729 104.026 80.1831C101.545 81.4554 98.3546 80.3648 97.1141 78.0019Z" fill="url(#paint42_linear_6008_208)"/>
<path d="M106.33 95.4504C105.089 92.9057 105.975 89.8157 108.456 88.3616C110.937 87.0893 113.95 87.9981 115.368 90.5428C116.608 93.0874 115.722 96.1774 113.241 97.6315C110.583 98.9038 107.57 97.995 106.33 95.4504Z" fill="url(#paint43_linear_6008_208)"/>
</g>
<defs>
<linearGradient id="paint0_linear_6008_208" x1="102.893" y1="31.9055" x2="22.7807" y2="44.0081" gradientUnits="userSpaceOnUse">
<stop stop-color="#0179B4"/>
<stop offset="0.954688" stop-color="#88D8FF"/>
</linearGradient>
<linearGradient id="paint1_linear_6008_208" x1="102.893" y1="31.9055" x2="22.7807" y2="44.0081" gradientUnits="userSpaceOnUse">
<stop stop-color="#0179B4"/>
<stop offset="0.954688" stop-color="#88D8FF"/>
</linearGradient>
<linearGradient id="paint2_linear_6008_208" x1="102.893" y1="31.9055" x2="22.7807" y2="44.0081" gradientUnits="userSpaceOnUse">
<stop stop-color="#0179B4"/>
<stop offset="0.954688" stop-color="#88D8FF"/>
</linearGradient>
<linearGradient id="paint3_linear_6008_208" x1="102.893" y1="31.9055" x2="22.7807" y2="44.0081" gradientUnits="userSpaceOnUse">
<stop stop-color="#0179B4"/>
<stop offset="0.954688" stop-color="#88D8FF"/>
</linearGradient>
<linearGradient id="paint4_linear_6008_208" x1="102.893" y1="31.9055" x2="22.7807" y2="44.0081" gradientUnits="userSpaceOnUse">
<stop stop-color="#0179B4"/>
<stop offset="0.954688" stop-color="#88D8FF"/>
</linearGradient>
<linearGradient id="paint5_linear_6008_208" x1="102.893" y1="31.9055" x2="22.7807" y2="44.0081" gradientUnits="userSpaceOnUse">
<stop stop-color="#0179B4"/>
<stop offset="0.954688" stop-color="#88D8FF"/>
</linearGradient>
<linearGradient id="paint6_linear_6008_208" x1="102.893" y1="31.9055" x2="22.7807" y2="44.0081" gradientUnits="userSpaceOnUse">
<stop stop-color="#0179B4"/>
<stop offset="0.954688" stop-color="#88D8FF"/>
</linearGradient>
<linearGradient id="paint7_linear_6008_208" x1="102.893" y1="31.9055" x2="22.7807" y2="44.0081" gradientUnits="userSpaceOnUse">
<stop stop-color="#0179B4"/>
<stop offset="0.954688" stop-color="#88D8FF"/>
</linearGradient>
<linearGradient id="paint8_linear_6008_208" x1="102.893" y1="31.9055" x2="22.7807" y2="44.0081" gradientUnits="userSpaceOnUse">
<stop stop-color="#0179B4"/>
<stop offset="0.954688" stop-color="#88D8FF"/>
</linearGradient>
<linearGradient id="paint9_linear_6008_208" x1="102.893" y1="31.9055" x2="22.7807" y2="44.0081" gradientUnits="userSpaceOnUse">
<stop stop-color="#0179B4"/>
<stop offset="0.954688" stop-color="#88D8FF"/>
</linearGradient>
<linearGradient id="paint10_linear_6008_208" x1="102.893" y1="31.9055" x2="22.7807" y2="44.0081" gradientUnits="userSpaceOnUse">
<stop stop-color="#0179B4"/>
<stop offset="0.954688" stop-color="#88D8FF"/>
</linearGradient>
<linearGradient id="paint11_linear_6008_208" x1="102.893" y1="31.9055" x2="22.7807" y2="44.0081" gradientUnits="userSpaceOnUse">
<stop stop-color="#0179B4"/>
<stop offset="0.954688" stop-color="#88D8FF"/>
</linearGradient>
<linearGradient id="paint12_linear_6008_208" x1="102.893" y1="31.9055" x2="22.7807" y2="44.0081" gradientUnits="userSpaceOnUse">
<stop stop-color="#0179B4"/>
<stop offset="0.954688" stop-color="#88D8FF"/>
</linearGradient>
<linearGradient id="paint13_linear_6008_208" x1="102.893" y1="31.9055" x2="22.7807" y2="44.0081" gradientUnits="userSpaceOnUse">
<stop stop-color="#0179B4"/>
<stop offset="0.954688" stop-color="#88D8FF"/>
</linearGradient>
<linearGradient id="paint14_linear_6008_208" x1="102.893" y1="31.9055" x2="22.7807" y2="44.0081" gradientUnits="userSpaceOnUse">
<stop stop-color="#0179B4"/>
<stop offset="0.954688" stop-color="#88D8FF"/>
</linearGradient>
<linearGradient id="paint15_linear_6008_208" x1="102.893" y1="31.9055" x2="22.7807" y2="44.0081" gradientUnits="userSpaceOnUse">
<stop stop-color="#0179B4"/>
<stop offset="0.954688" stop-color="#88D8FF"/>
</linearGradient>
<linearGradient id="paint16_linear_6008_208" x1="102.893" y1="31.9055" x2="22.7807" y2="44.0081" gradientUnits="userSpaceOnUse">
<stop stop-color="#0179B4"/>
<stop offset="0.954688" stop-color="#88D8FF"/>
</linearGradient>
<linearGradient id="paint17_linear_6008_208" x1="102.893" y1="31.9055" x2="22.7807" y2="44.0081" gradientUnits="userSpaceOnUse">
<stop stop-color="#0179B4"/>
<stop offset="0.954688" stop-color="#88D8FF"/>
</linearGradient>
<linearGradient id="paint18_linear_6008_208" x1="102.893" y1="31.9055" x2="22.7807" y2="44.0081" gradientUnits="userSpaceOnUse">
<stop stop-color="#0179B4"/>
<stop offset="0.954688" stop-color="#88D8FF"/>
</linearGradient>
<linearGradient id="paint19_linear_6008_208" x1="102.893" y1="31.9055" x2="22.7807" y2="44.0081" gradientUnits="userSpaceOnUse">
<stop stop-color="#0179B4"/>
<stop offset="0.954688" stop-color="#88D8FF"/>
</linearGradient>
<linearGradient id="paint20_linear_6008_208" x1="102.893" y1="31.9055" x2="22.7807" y2="44.0081" gradientUnits="userSpaceOnUse">
<stop stop-color="#0179B4"/>
<stop offset="0.954688" stop-color="#88D8FF"/>
</linearGradient>
<linearGradient id="paint21_linear_6008_208" x1="102.893" y1="31.9055" x2="22.7807" y2="44.0081" gradientUnits="userSpaceOnUse">
<stop stop-color="#0179B4"/>
<stop offset="0.954688" stop-color="#88D8FF"/>
</linearGradient>
<linearGradient id="paint22_linear_6008_208" x1="102.893" y1="31.9055" x2="22.7807" y2="44.0081" gradientUnits="userSpaceOnUse">
<stop stop-color="#0179B4"/>
<stop offset="0.954688" stop-color="#88D8FF"/>
</linearGradient>
<linearGradient id="paint23_linear_6008_208" x1="102.893" y1="31.9055" x2="22.7807" y2="44.0081" gradientUnits="userSpaceOnUse">
<stop stop-color="#0179B4"/>
<stop offset="0.954688" stop-color="#88D8FF"/>
</linearGradient>
<linearGradient id="paint24_linear_6008_208" x1="102.893" y1="31.9055" x2="22.7807" y2="44.0081" gradientUnits="userSpaceOnUse">
<stop stop-color="#0179B4"/>
<stop offset="0.954688" stop-color="#88D8FF"/>
</linearGradient>
<linearGradient id="paint25_linear_6008_208" x1="102.893" y1="31.9055" x2="22.7807" y2="44.0081" gradientUnits="userSpaceOnUse">
<stop stop-color="#0179B4"/>
<stop offset="0.954688" stop-color="#88D8FF"/>
</linearGradient>
<linearGradient id="paint26_linear_6008_208" x1="102.893" y1="31.9055" x2="22.7807" y2="44.0081" gradientUnits="userSpaceOnUse">
<stop stop-color="#0179B4"/>
<stop offset="0.954688" stop-color="#88D8FF"/>
</linearGradient>
<linearGradient id="paint27_linear_6008_208" x1="102.893" y1="31.9055" x2="22.7807" y2="44.0081" gradientUnits="userSpaceOnUse">
<stop stop-color="#0179B4"/>
<stop offset="0.954688" stop-color="#88D8FF"/>
</linearGradient>
<linearGradient id="paint28_linear_6008_208" x1="102.893" y1="31.9055" x2="22.7807" y2="44.0081" gradientUnits="userSpaceOnUse">
<stop stop-color="#0179B4"/>
<stop offset="0.954688" stop-color="#88D8FF"/>
</linearGradient>
<linearGradient id="paint29_linear_6008_208" x1="102.893" y1="31.9055" x2="22.7807" y2="44.0081" gradientUnits="userSpaceOnUse">
<stop stop-color="#0179B4"/>
<stop offset="0.954688" stop-color="#88D8FF"/>
</linearGradient>
<linearGradient id="paint30_linear_6008_208" x1="102.893" y1="31.9055" x2="22.7807" y2="44.0081" gradientUnits="userSpaceOnUse">
<stop stop-color="#0179B4"/>
<stop offset="0.954688" stop-color="#88D8FF"/>
</linearGradient>
<linearGradient id="paint31_linear_6008_208" x1="102.893" y1="31.9055" x2="22.7807" y2="44.0081" gradientUnits="userSpaceOnUse">
<stop stop-color="#0179B4"/>
<stop offset="0.954688" stop-color="#88D8FF"/>
</linearGradient>
<linearGradient id="paint32_linear_6008_208" x1="102.893" y1="31.9055" x2="22.7807" y2="44.0081" gradientUnits="userSpaceOnUse">
<stop stop-color="#0179B4"/>
<stop offset="0.954688" stop-color="#88D8FF"/>
</linearGradient>
<linearGradient id="paint33_linear_6008_208" x1="102.893" y1="31.9055" x2="22.7807" y2="44.0081" gradientUnits="userSpaceOnUse">
<stop stop-color="#0179B4"/>
<stop offset="0.954688" stop-color="#88D8FF"/>
</linearGradient>
<linearGradient id="paint34_linear_6008_208" x1="102.893" y1="31.9055" x2="22.7807" y2="44.0081" gradientUnits="userSpaceOnUse">
<stop stop-color="#0179B4"/>
<stop offset="0.954688" stop-color="#88D8FF"/>
</linearGradient>
<linearGradient id="paint35_linear_6008_208" x1="102.893" y1="31.9055" x2="22.7807" y2="44.0081" gradientUnits="userSpaceOnUse">
<stop stop-color="#0179B4"/>
<stop offset="0.954688" stop-color="#88D8FF"/>
</linearGradient>
<linearGradient id="paint36_linear_6008_208" x1="102.893" y1="31.9055" x2="22.7807" y2="44.0081" gradientUnits="userSpaceOnUse">
<stop stop-color="#0179B4"/>
<stop offset="0.954688" stop-color="#88D8FF"/>
</linearGradient>
<linearGradient id="paint37_linear_6008_208" x1="102.893" y1="31.9055" x2="22.7807" y2="44.0081" gradientUnits="userSpaceOnUse">
<stop stop-color="#0179B4"/>
<stop offset="0.954688" stop-color="#88D8FF"/>
</linearGradient>
<linearGradient id="paint38_linear_6008_208" x1="102.893" y1="31.9055" x2="22.7807" y2="44.0081" gradientUnits="userSpaceOnUse">
<stop stop-color="#0179B4"/>
<stop offset="0.954688" stop-color="#88D8FF"/>
</linearGradient>
<linearGradient id="paint39_linear_6008_208" x1="102.893" y1="31.9055" x2="22.7807" y2="44.0081" gradientUnits="userSpaceOnUse">
<stop stop-color="#0179B4"/>
<stop offset="0.954688" stop-color="#88D8FF"/>
</linearGradient>
<linearGradient id="paint40_linear_6008_208" x1="102.893" y1="31.9055" x2="22.7807" y2="44.0081" gradientUnits="userSpaceOnUse">
<stop stop-color="#0179B4"/>
<stop offset="0.954688" stop-color="#88D8FF"/>
</linearGradient>
<linearGradient id="paint41_linear_6008_208" x1="102.893" y1="31.9055" x2="22.7807" y2="44.0081" gradientUnits="userSpaceOnUse">
<stop stop-color="#0179B4"/>
<stop offset="0.954688" stop-color="#88D8FF"/>
</linearGradient>
<linearGradient id="paint42_linear_6008_208" x1="102.893" y1="31.9055" x2="22.7807" y2="44.0081" gradientUnits="userSpaceOnUse">
<stop stop-color="#0179B4"/>
<stop offset="0.954688" stop-color="#88D8FF"/>
</linearGradient>
<linearGradient id="paint43_linear_6008_208" x1="102.893" y1="31.9055" x2="22.7807" y2="44.0081" gradientUnits="userSpaceOnUse">
<stop stop-color="#0179B4"/>
<stop offset="0.954688" stop-color="#88D8FF"/>
</linearGradient>
</defs>
</svg>
