<svg width="17" height="15" viewBox="0 0 17 15" fill="none" xmlns="http://www.w3.org/2000/svg">
<path d="M8.75611 12.2045L12.5414 14.3605C13.2346 14.7556 14.0828 14.1715 13.9004 13.4328L12.8971 9.37858L16.2445 6.64713C16.8556 6.14894 16.5273 5.2041 15.7246 5.14397L11.3191 4.7918L9.59525 0.960897C9.28513 0.26515 8.22709 0.26515 7.91697 0.960897L6.19308 4.78321L1.7876 5.13538C0.984942 5.19551 0.656583 6.14035 1.2677 6.63854L4.61514 9.36999L3.61182 13.4242C3.42939 14.1629 4.27766 14.747 4.97086 14.3519L8.75611 12.2045Z" fill="#F3FBC6"/>
<path d="M6.19308 4.78587L7.91697 0.961217C8.07203 0.61313 8.41407 0.439087 8.75611 0.439087V12.2117L4.97086 14.3604C4.27766 14.7558 3.42939 14.1713 3.61182 13.4322L4.61514 9.37545L1.2677 6.64233C0.656583 6.14384 0.984942 5.19842 1.7876 5.13825L6.19308 4.78587Z" fill="#E9EF20"/>
</svg>
