
<svg width="22" height="23" viewBox="0 0 22 23" fill="none" xmlns="http://www.w3.org/2000/svg">
<path d="M14.6676 16.353L16.562 14.4578C16.8172 14.2058 17.14 14.0332 17.4913 13.9611C17.8426 13.889 18.2072 13.9205 18.541 14.0517L20.8498 14.9739C21.1871 15.1109 21.4763 15.3447 21.681 15.6458C21.8857 15.9469 21.9967 16.3019 22 16.6661V20.8964C21.998 21.1441 21.946 21.3888 21.847 21.6159C21.748 21.8429 21.6041 22.0476 21.4239 22.2176C21.2438 22.3875 21.0311 22.5192 20.7987 22.6048C20.5663 22.6903 20.3191 22.728 20.0718 22.7154C3.89312 21.7086 0.628639 8.0024 0.0112629 2.75682C-0.0173962 2.49922 0.00878882 2.23848 0.0880951 1.99173C0.167401 1.74499 0.298031 1.51784 0.471392 1.32523C0.644752 1.13261 0.856914 0.978907 1.09392 0.874214C1.33092 0.769522 1.5874 0.716217 1.84648 0.717808H5.93131C6.29582 0.718887 6.65168 0.829038 6.9531 1.03409C7.25453 1.23914 7.48774 1.52972 7.62275 1.86845L8.54458 4.1782C8.68011 4.51076 8.71469 4.8759 8.644 5.228C8.5733 5.58011 8.40047 5.90357 8.14709 6.15798L6.25268 8.05316C6.25268 8.05316 7.34366 15.4393 14.6676 16.353Z" fill="url(#paint0_linear_6008_411)"/>
<defs>
<linearGradient id="paint0_linear_6008_411" x1="-121.5" y1="14.7178" x2="13.9463" y2="32.293" gradientUnits="userSpaceOnUse">
<stop stop-color="#007DAA"/>
<stop offset="0.626806" stop-color="#15B2FF"/>
</linearGradient>
</defs>
</svg>
