<svg width="142" height="41" viewBox="0 0 142 41" fill="none" xmlns="http://www.w3.org/2000/svg">
<path d="M142 1C134.111 1 134.111 9.81039 126.222 9.81039C118.333 9.81039 118.333 1 110.445 1C102.556 1 102.556 9.81039 94.6667 9.81039C86.7778 9.81039 86.7777 1 78.8889 1C71 1 71 9.81039 63.1113 9.81039C55.2225 9.81039 55.2225 1 47.3331 1C39.4444 1 39.4444 9.81039 31.5556 9.81039C23.6669 9.81039 23.6669 1 15.7782 1C7.88874 1 7.88874 9.81039 -2.14577e-06 9.81039" stroke="url(#paint0_linear_6008_487)" stroke-width="2.01896" stroke-miterlimit="10"/>
<path d="M142 15.8569C134.111 15.8569 134.111 24.6672 126.222 24.6672C118.333 24.6672 118.333 15.8569 110.445 15.8569C102.556 15.8569 102.556 24.6672 94.6667 24.6672C86.7778 24.6672 86.7777 15.8569 78.8889 15.8569C71 15.8569 71 24.6672 63.1113 24.6672C55.2225 24.6672 55.2225 15.8569 47.3331 15.8569C39.4444 15.8569 39.4444 24.6672 31.5556 24.6672C23.6669 24.6672 23.6669 15.8569 15.7782 15.8569C7.88874 15.8569 7.88874 24.6672 -2.14577e-06 24.6672" stroke="url(#paint1_linear_6008_487)" stroke-width="2.01896" stroke-miterlimit="10"/>
<path d="M142 30.5408C134.111 30.5408 134.111 39.351 126.222 39.351C118.333 39.351 118.333 30.5408 110.445 30.5408C102.556 30.5408 102.556 39.351 94.6667 39.351C86.7778 39.351 86.7777 30.5408 78.8889 30.5408C71 30.5408 71 39.351 63.1113 39.351C55.2225 39.351 55.2225 30.5408 47.3331 30.5408C39.4444 30.5408 39.4444 39.351 31.5556 39.351C23.6669 39.351 23.6669 30.5408 15.7782 30.5408C7.88874 30.5408 7.88874 39.351 -2.14577e-06 39.351" stroke="url(#paint2_linear_6008_487)" stroke-width="2.01896" stroke-miterlimit="10"/>
<defs>
<linearGradient id="paint0_linear_6008_487" x1="115.069" y1="5.4052" x2="106.493" y2="26.4019" gradientUnits="userSpaceOnUse">
<stop stop-color="#0179B4"/>
<stop offset="0.876334" stop-color="#88D8FF"/>
</linearGradient>
<linearGradient id="paint1_linear_6008_487" x1="115.069" y1="20.2621" x2="106.493" y2="41.2586" gradientUnits="userSpaceOnUse">
<stop stop-color="#0179B4"/>
<stop offset="0.876334" stop-color="#88D8FF"/>
</linearGradient>
<linearGradient id="paint2_linear_6008_487" x1="115.069" y1="34.9459" x2="106.493" y2="55.9424" gradientUnits="userSpaceOnUse">
<stop stop-color="#0179B4"/>
<stop offset="0.876334" stop-color="#88D8FF"/>
</linearGradient>
</defs>
</svg>
