<svg width="140" height="71" viewBox="0 0 140 71" fill="none" xmlns="http://www.w3.org/2000/svg">
<path d="M2.43076 66.2102C3.53076 66.416 4.33078 67.5482 4.13078 68.6804C3.93078 69.8125 2.83075 70.6359 1.73075 70.43C0.630751 70.2242 -0.169261 69.092 0.0307392 67.9599C0.230739 66.7249 1.33076 66.0043 2.43076 66.2102Z" fill="black"/>
<path d="M2.43076 66.2102C3.53076 66.416 4.33078 67.5482 4.13078 68.6804C3.93078 69.8125 2.83075 70.6359 1.73075 70.43C0.630751 70.2242 -0.169261 69.092 0.0307392 67.9599C0.230739 66.7249 1.33076 66.0043 2.43076 66.2102Z" fill="url(#paint0_linear_6008_207)"/>
<path d="M2.43076 49.6398C3.53076 49.8457 4.33078 50.9778 4.13078 52.1099C3.93078 53.2421 2.83075 54.0654 1.73075 53.8596C0.630751 53.6537 -0.169261 52.5216 0.0307392 51.3895C0.230739 50.2573 1.33076 49.434 2.43076 49.6398Z" fill="black"/>
<path d="M2.43076 49.6398C3.53076 49.8457 4.33078 50.9778 4.13078 52.1099C3.93078 53.2421 2.83075 54.0654 1.73075 53.8596C0.630751 53.6537 -0.169261 52.5216 0.0307392 51.3895C0.230739 50.2573 1.33076 49.434 2.43076 49.6398Z" fill="url(#paint1_linear_6008_207)"/>
<path d="M2.43076 33.1725C3.53076 33.3784 4.33078 34.5105 4.13078 35.6426C3.93078 36.7748 2.83075 37.5981 1.73075 37.3923C0.630751 37.1865 -0.169261 36.0543 0.0307392 34.9222C0.230739 33.6871 1.33076 32.8638 2.43076 33.1725Z" fill="black"/>
<path d="M2.43076 33.1725C3.53076 33.3784 4.33078 34.5105 4.13078 35.6426C3.93078 36.7748 2.83075 37.5981 1.73075 37.3923C0.630751 37.1865 -0.169261 36.0543 0.0307392 34.9222C0.230739 33.6871 1.33076 32.8638 2.43076 33.1725Z" fill="url(#paint2_linear_6008_207)"/>
<path d="M2.43076 16.6021C3.53076 16.808 4.33078 17.9402 4.13078 19.0723C3.93078 20.2044 2.83075 21.0278 1.73075 20.822C0.630751 20.6161 -0.169261 19.484 0.0307392 18.3519C0.230739 17.1168 1.33076 16.3963 2.43076 16.6021Z" fill="black"/>
<path d="M2.43076 16.6021C3.53076 16.808 4.33078 17.9402 4.13078 19.0723C3.93078 20.2044 2.83075 21.0278 1.73075 20.822C0.630751 20.6161 -0.169261 19.484 0.0307392 18.3519C0.230739 17.1168 1.33076 16.3963 2.43076 16.6021Z" fill="url(#paint3_linear_6008_207)"/>
<path d="M2.43076 0.0316371C3.53076 0.237479 4.33078 1.36963 4.13078 2.50176C3.93078 3.63389 2.83075 4.45721 1.73075 4.25137C0.630751 4.04553 -0.169261 2.91344 0.0307392 1.78131C0.230739 0.649175 1.33076 -0.174205 2.43076 0.0316371Z" fill="black"/>
<path d="M2.43076 0.0316371C3.53076 0.237479 4.33078 1.36963 4.13078 2.50176C3.93078 3.63389 2.83075 4.45721 1.73075 4.25137C0.630751 4.04553 -0.169261 2.91344 0.0307392 1.78131C0.230739 0.649175 1.33076 -0.174205 2.43076 0.0316371Z" fill="url(#paint4_linear_6008_207)"/>
<path d="M15.9308 66.2102C17.0308 66.416 17.8308 67.5482 17.6308 68.6804C17.4308 69.8125 16.3308 70.6359 15.2308 70.43C14.1308 70.2242 13.3307 69.092 13.5307 67.9599C13.7307 66.7249 14.8308 66.0043 15.9308 66.2102Z" fill="black"/>
<path d="M15.9308 66.2102C17.0308 66.416 17.8308 67.5482 17.6308 68.6804C17.4308 69.8125 16.3308 70.6359 15.2308 70.43C14.1308 70.2242 13.3307 69.092 13.5307 67.9599C13.7307 66.7249 14.8308 66.0043 15.9308 66.2102Z" fill="url(#paint5_linear_6008_207)"/>
<path d="M15.9308 49.6398C17.0308 49.8457 17.8308 50.9778 17.6308 52.1099C17.4308 53.2421 16.3308 54.0654 15.2308 53.8596C14.1308 53.6537 13.3307 52.5216 13.5307 51.3895C13.7307 50.2573 14.8308 49.434 15.9308 49.6398Z" fill="black"/>
<path d="M15.9308 49.6398C17.0308 49.8457 17.8308 50.9778 17.6308 52.1099C17.4308 53.2421 16.3308 54.0654 15.2308 53.8596C14.1308 53.6537 13.3307 52.5216 13.5307 51.3895C13.7307 50.2573 14.8308 49.434 15.9308 49.6398Z" fill="url(#paint6_linear_6008_207)"/>
<path d="M15.9308 33.1725C17.0308 33.3784 17.8308 34.5105 17.6308 35.6426C17.4308 36.7748 16.3308 37.5981 15.2308 37.3923C14.1308 37.1865 13.3307 36.0543 13.5307 34.9222C13.7307 33.6871 14.8308 32.8638 15.9308 33.1725Z" fill="black"/>
<path d="M15.9308 33.1725C17.0308 33.3784 17.8308 34.5105 17.6308 35.6426C17.4308 36.7748 16.3308 37.5981 15.2308 37.3923C14.1308 37.1865 13.3307 36.0543 13.5307 34.9222C13.7307 33.6871 14.8308 32.8638 15.9308 33.1725Z" fill="url(#paint7_linear_6008_207)"/>
<path d="M15.9308 16.6021C17.0308 16.808 17.8308 17.9402 17.6308 19.0723C17.4308 20.2044 16.3308 21.0278 15.2308 20.822C14.1308 20.6161 13.3307 19.484 13.5307 18.3519C13.7307 17.1168 14.8308 16.3963 15.9308 16.6021Z" fill="black"/>
<path d="M15.9308 16.6021C17.0308 16.808 17.8308 17.9402 17.6308 19.0723C17.4308 20.2044 16.3308 21.0278 15.2308 20.822C14.1308 20.6161 13.3307 19.484 13.5307 18.3519C13.7307 17.1168 14.8308 16.3963 15.9308 16.6021Z" fill="url(#paint8_linear_6008_207)"/>
<path d="M15.9308 0.0317627C17.0308 0.237604 17.8308 1.36976 17.6308 2.50189C17.4308 3.63402 16.3308 4.45733 15.2308 4.25149C14.1308 4.04565 13.3307 2.91356 13.5307 1.78143C13.7307 0.649301 14.8308 -0.174079 15.9308 0.0317627Z" fill="black"/>
<path d="M15.9308 0.0317627C17.0308 0.237604 17.8308 1.36976 17.6308 2.50189C17.4308 3.63402 16.3308 4.45733 15.2308 4.25149C14.1308 4.04565 13.3307 2.91356 13.5307 1.78143C13.7307 0.649301 14.8308 -0.174079 15.9308 0.0317627Z" fill="url(#paint9_linear_6008_207)"/>
<path d="M29.5303 66.2102C30.6303 66.416 31.4303 67.5482 31.2303 68.6804C31.0303 69.8125 29.9303 70.6359 28.8303 70.43C27.7303 70.2242 26.9304 69.092 27.1304 67.9599C27.3304 66.7249 28.3303 66.0043 29.5303 66.2102Z" fill="black"/>
<path d="M29.5303 66.2102C30.6303 66.416 31.4303 67.5482 31.2303 68.6804C31.0303 69.8125 29.9303 70.6359 28.8303 70.43C27.7303 70.2242 26.9304 69.092 27.1304 67.9599C27.3304 66.7249 28.3303 66.0043 29.5303 66.2102Z" fill="url(#paint10_linear_6008_207)"/>
<path d="M29.5303 49.6398C30.6303 49.8457 31.4303 50.9778 31.2303 52.1099C31.0303 53.2421 29.9303 54.0654 28.8303 53.8596C27.7303 53.6537 26.9304 52.5216 27.1304 51.3895C27.3304 50.2573 28.3303 49.434 29.5303 49.6398Z" fill="black"/>
<path d="M29.5303 49.6398C30.6303 49.8457 31.4303 50.9778 31.2303 52.1099C31.0303 53.2421 29.9303 54.0654 28.8303 53.8596C27.7303 53.6537 26.9304 52.5216 27.1304 51.3895C27.3304 50.2573 28.3303 49.434 29.5303 49.6398Z" fill="url(#paint11_linear_6008_207)"/>
<path d="M29.5303 33.1725C30.6303 33.3784 31.4303 34.5105 31.2303 35.6426C31.0303 36.7748 29.9303 37.5981 28.8303 37.3923C27.7303 37.1865 26.9304 36.0543 27.1304 34.9222C27.3304 33.6871 28.3303 32.8638 29.5303 33.1725Z" fill="black"/>
<path d="M29.5303 33.1725C30.6303 33.3784 31.4303 34.5105 31.2303 35.6426C31.0303 36.7748 29.9303 37.5981 28.8303 37.3923C27.7303 37.1865 26.9304 36.0543 27.1304 34.9222C27.3304 33.6871 28.3303 32.8638 29.5303 33.1725Z" fill="url(#paint12_linear_6008_207)"/>
<path d="M29.5303 16.6021C30.6303 16.808 31.4303 17.9402 31.2303 19.0723C31.0303 20.2044 29.9303 21.0278 28.8303 20.822C27.7303 20.6161 26.9304 19.484 27.1304 18.3519C27.3304 17.1168 28.3303 16.3963 29.5303 16.6021Z" fill="black"/>
<path d="M29.5303 16.6021C30.6303 16.808 31.4303 17.9402 31.2303 19.0723C31.0303 20.2044 29.9303 21.0278 28.8303 20.822C27.7303 20.6161 26.9304 19.484 27.1304 18.3519C27.3304 17.1168 28.3303 16.3963 29.5303 16.6021Z" fill="url(#paint13_linear_6008_207)"/>
<path d="M29.5303 0.0317627C30.6303 0.237604 31.4303 1.36976 31.2303 2.50189C31.0303 3.63402 29.9303 4.45733 28.8303 4.25149C27.7303 4.04565 26.9304 2.91356 27.1304 1.78143C27.3304 0.649301 28.3303 -0.174079 29.5303 0.0317627Z" fill="black"/>
<path d="M29.5303 0.0317627C30.6303 0.237604 31.4303 1.36976 31.2303 2.50189C31.0303 3.63402 29.9303 4.45733 28.8303 4.25149C27.7303 4.04565 26.9304 2.91356 27.1304 1.78143C27.3304 0.649301 28.3303 -0.174079 29.5303 0.0317627Z" fill="url(#paint14_linear_6008_207)"/>
<path d="M43.0303 66.2102C44.1303 66.416 44.9303 67.5482 44.7303 68.6804C44.5303 69.8125 43.4303 70.6359 42.3303 70.43C41.2303 70.2242 40.4304 69.092 40.6304 67.9599C40.8304 66.7249 41.9303 66.0043 43.0303 66.2102Z" fill="black"/>
<path d="M43.0303 66.2102C44.1303 66.416 44.9303 67.5482 44.7303 68.6804C44.5303 69.8125 43.4303 70.6359 42.3303 70.43C41.2303 70.2242 40.4304 69.092 40.6304 67.9599C40.8304 66.7249 41.9303 66.0043 43.0303 66.2102Z" fill="url(#paint15_linear_6008_207)"/>
<path d="M43.0303 49.6398C44.1303 49.8457 44.9303 50.9778 44.7303 52.1099C44.5303 53.2421 43.4303 54.0654 42.3303 53.8596C41.2303 53.6537 40.4304 52.5216 40.6304 51.3895C40.8304 50.2573 41.9303 49.434 43.0303 49.6398Z" fill="black"/>
<path d="M43.0303 49.6398C44.1303 49.8457 44.9303 50.9778 44.7303 52.1099C44.5303 53.2421 43.4303 54.0654 42.3303 53.8596C41.2303 53.6537 40.4304 52.5216 40.6304 51.3895C40.8304 50.2573 41.9303 49.434 43.0303 49.6398Z" fill="url(#paint16_linear_6008_207)"/>
<path d="M43.0303 33.1725C44.1303 33.3784 44.9303 34.5105 44.7303 35.6426C44.5303 36.7748 43.4303 37.5981 42.3303 37.3923C41.2303 37.1865 40.4304 36.0543 40.6304 34.9222C40.8304 33.6871 41.9303 32.8638 43.0303 33.1725Z" fill="black"/>
<path d="M43.0303 33.1725C44.1303 33.3784 44.9303 34.5105 44.7303 35.6426C44.5303 36.7748 43.4303 37.5981 42.3303 37.3923C41.2303 37.1865 40.4304 36.0543 40.6304 34.9222C40.8304 33.6871 41.9303 32.8638 43.0303 33.1725Z" fill="url(#paint17_linear_6008_207)"/>
<path d="M43.0303 16.6021C44.1303 16.808 44.9303 17.9402 44.7303 19.0723C44.5303 20.2044 43.4303 21.0278 42.3303 20.822C41.2303 20.6161 40.4304 19.484 40.6304 18.3519C40.8304 17.1168 41.9303 16.3963 43.0303 16.6021Z" fill="black"/>
<path d="M43.0303 16.6021C44.1303 16.808 44.9303 17.9402 44.7303 19.0723C44.5303 20.2044 43.4303 21.0278 42.3303 20.822C41.2303 20.6161 40.4304 19.484 40.6304 18.3519C40.8304 17.1168 41.9303 16.3963 43.0303 16.6021Z" fill="url(#paint18_linear_6008_207)"/>
<path d="M43.0303 0.0317627C44.1303 0.237604 44.9303 1.36976 44.7303 2.50189C44.5303 3.63402 43.4303 4.45733 42.3303 4.25149C41.2303 4.04565 40.4304 2.91356 40.6304 1.78143C40.8304 0.649301 41.9303 -0.174079 43.0303 0.0317627Z" fill="black"/>
<path d="M43.0303 0.0317627C44.1303 0.237604 44.9303 1.36976 44.7303 2.50189C44.5303 3.63402 43.4303 4.45733 42.3303 4.25149C41.2303 4.04565 40.4304 2.91356 40.6304 1.78143C40.8304 0.649301 41.9303 -0.174079 43.0303 0.0317627Z" fill="url(#paint19_linear_6008_207)"/>
<path d="M56.5303 66.2102C57.6303 66.416 58.4303 67.5482 58.2303 68.6804C58.0303 69.8125 56.9303 70.6359 55.8303 70.43C54.7303 70.2242 53.9304 69.092 54.1304 67.9599C54.3304 66.7249 55.4303 66.0043 56.5303 66.2102Z" fill="black"/>
<path d="M56.5303 66.2102C57.6303 66.416 58.4303 67.5482 58.2303 68.6804C58.0303 69.8125 56.9303 70.6359 55.8303 70.43C54.7303 70.2242 53.9304 69.092 54.1304 67.9599C54.3304 66.7249 55.4303 66.0043 56.5303 66.2102Z" fill="url(#paint20_linear_6008_207)"/>
<path d="M56.5303 49.6398C57.6303 49.8457 58.4303 50.9778 58.2303 52.1099C58.0303 53.2421 56.9303 54.0654 55.8303 53.8596C54.7303 53.6537 53.9304 52.5216 54.1304 51.3895C54.3304 50.2573 55.4303 49.434 56.5303 49.6398Z" fill="black"/>
<path d="M56.5303 49.6398C57.6303 49.8457 58.4303 50.9778 58.2303 52.1099C58.0303 53.2421 56.9303 54.0654 55.8303 53.8596C54.7303 53.6537 53.9304 52.5216 54.1304 51.3895C54.3304 50.2573 55.4303 49.434 56.5303 49.6398Z" fill="url(#paint21_linear_6008_207)"/>
<path d="M56.5303 33.1725C57.6303 33.3784 58.4303 34.5105 58.2303 35.6426C58.0303 36.7748 56.9303 37.5981 55.8303 37.3923C54.7303 37.1865 53.9304 36.0543 54.1304 34.9222C54.3304 33.6871 55.4303 32.8638 56.5303 33.1725Z" fill="black"/>
<path d="M56.5303 33.1725C57.6303 33.3784 58.4303 34.5105 58.2303 35.6426C58.0303 36.7748 56.9303 37.5981 55.8303 37.3923C54.7303 37.1865 53.9304 36.0543 54.1304 34.9222C54.3304 33.6871 55.4303 32.8638 56.5303 33.1725Z" fill="url(#paint22_linear_6008_207)"/>
<path d="M56.5303 16.6021C57.6303 16.808 58.4303 17.9402 58.2303 19.0723C58.0303 20.2044 56.9303 21.0278 55.8303 20.822C54.7303 20.6161 53.9304 19.484 54.1304 18.3519C54.3304 17.1168 55.4303 16.3963 56.5303 16.6021Z" fill="black"/>
<path d="M56.5303 16.6021C57.6303 16.808 58.4303 17.9402 58.2303 19.0723C58.0303 20.2044 56.9303 21.0278 55.8303 20.822C54.7303 20.6161 53.9304 19.484 54.1304 18.3519C54.3304 17.1168 55.4303 16.3963 56.5303 16.6021Z" fill="url(#paint23_linear_6008_207)"/>
<path d="M56.5303 0.0317627C57.6303 0.237604 58.4303 1.36976 58.2303 2.50189C58.0303 3.63402 56.9303 4.45733 55.8303 4.25149C54.7303 4.04565 53.9304 2.91356 54.1304 1.78143C54.3304 0.649301 55.4303 -0.174079 56.5303 0.0317627Z" fill="black"/>
<path d="M56.5303 0.0317627C57.6303 0.237604 58.4303 1.36976 58.2303 2.50189C58.0303 3.63402 56.9303 4.45733 55.8303 4.25149C54.7303 4.04565 53.9304 2.91356 54.1304 1.78143C54.3304 0.649301 55.4303 -0.174079 56.5303 0.0317627Z" fill="url(#paint24_linear_6008_207)"/>
<path d="M70.131 66.2102C71.231 66.416 72.0309 67.5482 71.8309 68.6804C71.6309 69.8125 70.5309 70.6359 69.4309 70.43C68.3309 70.2242 67.5309 69.092 67.7309 67.9599C67.8309 66.7249 68.931 66.0043 70.131 66.2102Z" fill="black"/>
<path d="M70.131 66.2102C71.231 66.416 72.0309 67.5482 71.8309 68.6804C71.6309 69.8125 70.5309 70.6359 69.4309 70.43C68.3309 70.2242 67.5309 69.092 67.7309 67.9599C67.8309 66.7249 68.931 66.0043 70.131 66.2102Z" fill="url(#paint25_linear_6008_207)"/>
<path d="M70.131 49.6398C71.231 49.8457 72.0309 50.9778 71.8309 52.1099C71.6309 53.2421 70.5309 54.0654 69.4309 53.8596C68.3309 53.6537 67.5309 52.5216 67.7309 51.3895C67.8309 50.2573 68.931 49.434 70.131 49.6398Z" fill="black"/>
<path d="M70.131 49.6398C71.231 49.8457 72.0309 50.9778 71.8309 52.1099C71.6309 53.2421 70.5309 54.0654 69.4309 53.8596C68.3309 53.6537 67.5309 52.5216 67.7309 51.3895C67.8309 50.2573 68.931 49.434 70.131 49.6398Z" fill="url(#paint26_linear_6008_207)"/>
<path d="M70.131 33.1725C71.231 33.3784 72.0309 34.5105 71.8309 35.6426C71.6309 36.7748 70.5309 37.5981 69.4309 37.3923C68.3309 37.1865 67.5309 36.0543 67.7309 34.9222C67.8309 33.6871 68.931 32.8638 70.131 33.1725Z" fill="black"/>
<path d="M70.131 33.1725C71.231 33.3784 72.0309 34.5105 71.8309 35.6426C71.6309 36.7748 70.5309 37.5981 69.4309 37.3923C68.3309 37.1865 67.5309 36.0543 67.7309 34.9222C67.8309 33.6871 68.931 32.8638 70.131 33.1725Z" fill="url(#paint27_linear_6008_207)"/>
<path d="M70.131 16.6021C71.231 16.808 72.0309 17.9402 71.8309 19.0723C71.6309 20.2044 70.5309 21.0278 69.4309 20.822C68.3309 20.6161 67.5309 19.484 67.7309 18.3519C67.8309 17.1168 68.931 16.3963 70.131 16.6021Z" fill="black"/>
<path d="M70.131 16.6021C71.231 16.808 72.0309 17.9402 71.8309 19.0723C71.6309 20.2044 70.5309 21.0278 69.4309 20.822C68.3309 20.6161 67.5309 19.484 67.7309 18.3519C67.8309 17.1168 68.931 16.3963 70.131 16.6021Z" fill="url(#paint28_linear_6008_207)"/>
<path d="M70.131 0.0317627C71.231 0.237604 72.0309 1.36976 71.8309 2.50189C71.6309 3.63402 70.5309 4.45733 69.4309 4.25149C68.3309 4.04565 67.5309 2.91356 67.7309 1.78143C67.8309 0.649301 68.931 -0.174079 70.131 0.0317627Z" fill="black"/>
<path d="M70.131 0.0317627C71.231 0.237604 72.0309 1.36976 71.8309 2.50189C71.6309 3.63402 70.5309 4.45733 69.4309 4.25149C68.3309 4.04565 67.5309 2.91356 67.7309 1.78143C67.8309 0.649301 68.931 -0.174079 70.131 0.0317627Z" fill="url(#paint29_linear_6008_207)"/>
<path d="M83.631 66.2102C84.731 66.416 85.5309 67.5482 85.3309 68.6804C85.1309 69.8125 84.0309 70.6359 82.9309 70.43C81.8309 70.2242 81.0309 69.092 81.2309 67.9599C81.4309 66.7249 82.531 66.0043 83.631 66.2102Z" fill="black"/>
<path d="M83.631 66.2102C84.731 66.416 85.5309 67.5482 85.3309 68.6804C85.1309 69.8125 84.0309 70.6359 82.9309 70.43C81.8309 70.2242 81.0309 69.092 81.2309 67.9599C81.4309 66.7249 82.531 66.0043 83.631 66.2102Z" fill="url(#paint30_linear_6008_207)"/>
<path d="M83.631 49.6398C84.731 49.8457 85.5309 50.9778 85.3309 52.1099C85.1309 53.2421 84.0309 54.0654 82.9309 53.8596C81.8309 53.6537 81.0309 52.5216 81.2309 51.3895C81.4309 50.2573 82.531 49.434 83.631 49.6398Z" fill="black"/>
<path d="M83.631 49.6398C84.731 49.8457 85.5309 50.9778 85.3309 52.1099C85.1309 53.2421 84.0309 54.0654 82.9309 53.8596C81.8309 53.6537 81.0309 52.5216 81.2309 51.3895C81.4309 50.2573 82.531 49.434 83.631 49.6398Z" fill="url(#paint31_linear_6008_207)"/>
<path d="M83.631 33.1725C84.731 33.3784 85.5309 34.5105 85.3309 35.6426C85.1309 36.7748 84.0309 37.5981 82.9309 37.3923C81.8309 37.1865 81.0309 36.0543 81.2309 34.9222C81.4309 33.6871 82.531 32.8638 83.631 33.1725Z" fill="black"/>
<path d="M83.631 33.1725C84.731 33.3784 85.5309 34.5105 85.3309 35.6426C85.1309 36.7748 84.0309 37.5981 82.9309 37.3923C81.8309 37.1865 81.0309 36.0543 81.2309 34.9222C81.4309 33.6871 82.531 32.8638 83.631 33.1725Z" fill="url(#paint32_linear_6008_207)"/>
<path d="M83.631 16.6021C84.731 16.808 85.5309 17.9402 85.3309 19.0723C85.1309 20.2044 84.0309 21.0278 82.9309 20.822C81.8309 20.6161 81.0309 19.484 81.2309 18.3519C81.4309 17.1168 82.531 16.3963 83.631 16.6021Z" fill="black"/>
<path d="M83.631 16.6021C84.731 16.808 85.5309 17.9402 85.3309 19.0723C85.1309 20.2044 84.0309 21.0278 82.9309 20.822C81.8309 20.6161 81.0309 19.484 81.2309 18.3519C81.4309 17.1168 82.531 16.3963 83.631 16.6021Z" fill="url(#paint33_linear_6008_207)"/>
<path d="M83.631 0.0317627C84.731 0.237604 85.5309 1.36976 85.3309 2.50189C85.1309 3.63402 84.0309 4.45733 82.9309 4.25149C81.8309 4.04565 81.0309 2.91356 81.2309 1.78143C81.4309 0.649301 82.531 -0.174079 83.631 0.0317627Z" fill="black"/>
<path d="M83.631 0.0317627C84.731 0.237604 85.5309 1.36976 85.3309 2.50189C85.1309 3.63402 84.0309 4.45733 82.9309 4.25149C81.8309 4.04565 81.0309 2.91356 81.2309 1.78143C81.4309 0.649301 82.531 -0.174079 83.631 0.0317627Z" fill="url(#paint34_linear_6008_207)"/>
<path d="M97.131 66.2102C98.231 66.416 99.0309 67.5482 98.8309 68.6804C98.6309 69.8125 97.5309 70.6359 96.4309 70.43C95.3309 70.2242 94.5309 69.092 94.7309 67.9599C94.9309 66.7249 96.031 66.0043 97.131 66.2102Z" fill="black"/>
<path d="M97.131 66.2102C98.231 66.416 99.0309 67.5482 98.8309 68.6804C98.6309 69.8125 97.5309 70.6359 96.4309 70.43C95.3309 70.2242 94.5309 69.092 94.7309 67.9599C94.9309 66.7249 96.031 66.0043 97.131 66.2102Z" fill="url(#paint35_linear_6008_207)"/>
<path d="M97.131 49.6398C98.231 49.8457 99.0309 50.9778 98.8309 52.1099C98.6309 53.2421 97.5309 54.0654 96.4309 53.8596C95.3309 53.6537 94.5309 52.5216 94.7309 51.3895C94.9309 50.2573 96.031 49.434 97.131 49.6398Z" fill="black"/>
<path d="M97.131 49.6398C98.231 49.8457 99.0309 50.9778 98.8309 52.1099C98.6309 53.2421 97.5309 54.0654 96.4309 53.8596C95.3309 53.6537 94.5309 52.5216 94.7309 51.3895C94.9309 50.2573 96.031 49.434 97.131 49.6398Z" fill="url(#paint36_linear_6008_207)"/>
<path d="M97.131 33.1725C98.231 33.3784 99.0309 34.5105 98.8309 35.6426C98.6309 36.7748 97.5309 37.5981 96.4309 37.3923C95.3309 37.1865 94.5309 36.0543 94.7309 34.9222C94.9309 33.6871 96.031 32.8638 97.131 33.1725Z" fill="black"/>
<path d="M97.131 33.1725C98.231 33.3784 99.0309 34.5105 98.8309 35.6426C98.6309 36.7748 97.5309 37.5981 96.4309 37.3923C95.3309 37.1865 94.5309 36.0543 94.7309 34.9222C94.9309 33.6871 96.031 32.8638 97.131 33.1725Z" fill="url(#paint37_linear_6008_207)"/>
<path d="M97.131 16.6021C98.231 16.808 99.0309 17.9402 98.8309 19.0723C98.6309 20.2044 97.5309 21.0278 96.4309 20.822C95.3309 20.6161 94.5309 19.484 94.7309 18.3519C94.9309 17.1168 96.031 16.3963 97.131 16.6021Z" fill="black"/>
<path d="M97.131 16.6021C98.231 16.808 99.0309 17.9402 98.8309 19.0723C98.6309 20.2044 97.5309 21.0278 96.4309 20.822C95.3309 20.6161 94.5309 19.484 94.7309 18.3519C94.9309 17.1168 96.031 16.3963 97.131 16.6021Z" fill="url(#paint38_linear_6008_207)"/>
<path d="M97.131 0.0317627C98.231 0.237604 99.0309 1.36976 98.8309 2.50189C98.6309 3.63402 97.5309 4.45733 96.4309 4.25149C95.3309 4.04565 94.5309 2.91356 94.7309 1.78143C94.9309 0.649301 96.031 -0.174079 97.131 0.0317627Z" fill="black"/>
<path d="M97.131 0.0317627C98.231 0.237604 99.0309 1.36976 98.8309 2.50189C98.6309 3.63402 97.5309 4.45733 96.4309 4.25149C95.3309 4.04565 94.5309 2.91356 94.7309 1.78143C94.9309 0.649301 96.031 -0.174079 97.131 0.0317627Z" fill="url(#paint39_linear_6008_207)"/>
<path d="M110.631 66.2102C111.731 66.416 112.531 67.5482 112.331 68.6804C112.131 69.8125 111.031 70.6359 109.931 70.43C108.831 70.2242 108.031 69.092 108.231 67.9599C108.431 66.7249 109.531 66.0043 110.631 66.2102Z" fill="black"/>
<path d="M110.631 66.2102C111.731 66.416 112.531 67.5482 112.331 68.6804C112.131 69.8125 111.031 70.6359 109.931 70.43C108.831 70.2242 108.031 69.092 108.231 67.9599C108.431 66.7249 109.531 66.0043 110.631 66.2102Z" fill="url(#paint40_linear_6008_207)"/>
<path d="M112.43 51.8012C112.43 50.6075 111.49 49.6398 110.33 49.6398C109.171 49.6398 108.23 50.6075 108.23 51.8012C108.23 52.9949 109.171 53.9626 110.33 53.9626C111.49 53.9626 112.43 52.9949 112.43 51.8012Z" fill="black"/>
<path d="M112.43 51.8012C112.43 50.6075 111.49 49.6398 110.33 49.6398C109.171 49.6398 108.23 50.6075 108.23 51.8012C108.23 52.9949 109.171 53.9626 110.33 53.9626C111.49 53.9626 112.43 52.9949 112.43 51.8012Z" fill="url(#paint41_linear_6008_207)"/>
<path d="M112.391 34.9773C112.234 33.7945 111.175 32.9664 110.026 33.1276C108.877 33.2887 108.073 34.3781 108.229 35.5609C108.386 36.7435 109.444 37.5716 110.593 37.4104C111.742 37.2494 112.547 36.16 112.391 34.9773Z" fill="black"/>
<path d="M112.391 34.9773C112.234 33.7945 111.175 32.9664 110.026 33.1276C108.877 33.2887 108.073 34.3781 108.229 35.5609C108.386 36.7435 109.444 37.5716 110.593 37.4104C111.742 37.2494 112.547 36.16 112.391 34.9773Z" fill="url(#paint42_linear_6008_207)"/>
<path d="M110.631 16.6021C111.731 16.808 112.531 17.9402 112.331 19.0723C112.131 20.2044 111.031 21.0278 109.931 20.822C108.831 20.6161 108.031 19.484 108.231 18.3519C108.431 17.1168 109.531 16.3963 110.631 16.6021Z" fill="black"/>
<path d="M110.631 16.6021C111.731 16.808 112.531 17.9402 112.331 19.0723C112.131 20.2044 111.031 21.0278 109.931 20.822C108.831 20.6161 108.031 19.484 108.231 18.3519C108.431 17.1168 109.531 16.3963 110.631 16.6021Z" fill="url(#paint43_linear_6008_207)"/>
<path d="M110.631 0.0317627C111.731 0.237604 112.531 1.36976 112.331 2.50189C112.131 3.63402 111.031 4.45733 109.931 4.25149C108.831 4.04565 108.031 2.91356 108.231 1.78143C108.431 0.649301 109.531 -0.174079 110.631 0.0317627Z" fill="black"/>
<path d="M110.631 0.0317627C111.731 0.237604 112.531 1.36976 112.331 2.50189C112.131 3.63402 111.031 4.45733 109.931 4.25149C108.831 4.04565 108.031 2.91356 108.231 1.78143C108.431 0.649301 109.531 -0.174079 110.631 0.0317627Z" fill="url(#paint44_linear_6008_207)"/>
<path d="M124.232 66.2102C125.332 66.416 126.132 67.5482 125.932 68.6804C125.732 69.8125 124.632 70.6359 123.532 70.43C122.432 70.2242 121.632 69.092 121.832 67.9599C122.032 66.7249 123.032 66.0043 124.232 66.2102Z" fill="black"/>
<path d="M124.232 66.2102C125.332 66.416 126.132 67.5482 125.932 68.6804C125.732 69.8125 124.632 70.6359 123.532 70.43C122.432 70.2242 121.632 69.092 121.832 67.9599C122.032 66.7249 123.032 66.0043 124.232 66.2102Z" fill="url(#paint45_linear_6008_207)"/>
<path d="M125.931 51.8012C125.931 50.6075 124.991 49.6398 123.831 49.6398C122.672 49.6398 121.731 50.6075 121.731 51.8012C121.731 52.9949 122.672 53.9626 123.831 53.9626C124.991 53.9626 125.931 52.9949 125.931 51.8012Z" fill="black"/>
<path d="M125.931 51.8012C125.931 50.6075 124.991 49.6398 123.831 49.6398C122.672 49.6398 121.731 50.6075 121.731 51.8012C121.731 52.9949 122.672 53.9626 123.831 53.9626C124.991 53.9626 125.931 52.9949 125.931 51.8012Z" fill="url(#paint46_linear_6008_207)"/>
<path d="M125.892 34.9819C125.735 33.7991 124.676 32.971 123.527 33.1321C122.378 33.2933 121.574 34.3827 121.73 35.5655C121.887 36.7481 122.945 37.5762 124.094 37.4151C125.243 37.2539 126.048 36.1646 125.892 34.9819Z" fill="black"/>
<path d="M125.892 34.9819C125.735 33.7991 124.676 32.971 123.527 33.1321C122.378 33.2933 121.574 34.3827 121.73 35.5655C121.887 36.7481 122.945 37.5762 124.094 37.4151C125.243 37.2539 126.048 36.1646 125.892 34.9819Z" fill="url(#paint47_linear_6008_207)"/>
<path d="M124.232 16.6021C125.332 16.808 126.132 17.9402 125.932 19.0723C125.732 20.2044 124.632 21.0278 123.532 20.822C122.432 20.6161 121.632 19.484 121.832 18.3519C122.032 17.1168 123.032 16.3963 124.232 16.6021Z" fill="black"/>
<path d="M124.232 16.6021C125.332 16.808 126.132 17.9402 125.932 19.0723C125.732 20.2044 124.632 21.0278 123.532 20.822C122.432 20.6161 121.632 19.484 121.832 18.3519C122.032 17.1168 123.032 16.3963 124.232 16.6021Z" fill="url(#paint48_linear_6008_207)"/>
<path d="M124.231 0.0317627C125.331 0.237604 126.131 1.36976 125.931 2.50189C125.731 3.63402 124.631 4.45733 123.531 4.25149C122.431 4.04565 121.631 2.91356 121.831 1.78143C122.031 0.649301 123.031 -0.174079 124.231 0.0317627Z" fill="black"/>
<path d="M124.231 0.0317627C125.331 0.237604 126.131 1.36976 125.931 2.50189C125.731 3.63402 124.631 4.45733 123.531 4.25149C122.431 4.04565 121.631 2.91356 121.831 1.78143C122.031 0.649301 123.031 -0.174079 124.231 0.0317627Z" fill="url(#paint49_linear_6008_207)"/>
<path d="M137.731 66.2102C138.831 66.416 139.631 67.5482 139.431 68.6804C139.231 69.8125 138.131 70.6359 137.031 70.43C135.931 70.2242 135.131 69.092 135.331 67.9599C135.531 66.7249 136.631 66.0043 137.731 66.2102Z" fill="black"/>
<path d="M137.731 66.2102C138.831 66.416 139.631 67.5482 139.431 68.6804C139.231 69.8125 138.131 70.6359 137.031 70.43C135.931 70.2242 135.131 69.092 135.331 67.9599C135.531 66.7249 136.631 66.0043 137.731 66.2102Z" fill="url(#paint50_linear_6008_207)"/>
<path d="M139.43 51.8012C139.43 50.6075 138.49 49.6398 137.33 49.6398C136.171 49.6398 135.23 50.6075 135.23 51.8012C135.23 52.9949 136.171 53.9626 137.33 53.9626C138.49 53.9626 139.43 52.9949 139.43 51.8012Z" fill="black"/>
<path d="M139.43 51.8012C139.43 50.6075 138.49 49.6398 137.33 49.6398C136.171 49.6398 135.23 50.6075 135.23 51.8012C135.23 52.9949 136.171 53.9626 137.33 53.9626C138.49 53.9626 139.43 52.9949 139.43 51.8012Z" fill="url(#paint51_linear_6008_207)"/>
<path d="M139.391 34.9864C139.234 33.8037 138.175 32.9756 137.026 33.1366C135.877 33.2978 135.073 34.3872 135.229 35.57C135.386 36.7526 136.444 37.5807 137.593 37.4196C138.742 37.2584 139.547 36.1691 139.391 34.9864Z" fill="black"/>
<path d="M139.391 34.9864C139.234 33.8037 138.175 32.9756 137.026 33.1366C135.877 33.2978 135.073 34.3872 135.229 35.57C135.386 36.7526 136.444 37.5807 137.593 37.4196C138.742 37.2584 139.547 36.1691 139.391 34.9864Z" fill="url(#paint52_linear_6008_207)"/>
<path d="M137.731 16.6021C138.831 16.808 139.631 17.9402 139.431 19.0723C139.231 20.2044 138.131 21.0278 137.031 20.822C135.931 20.6161 135.131 19.484 135.331 18.3519C135.531 17.1168 136.631 16.3963 137.731 16.6021Z" fill="black"/>
<path d="M137.731 16.6021C138.831 16.808 139.631 17.9402 139.431 19.0723C139.231 20.2044 138.131 21.0278 137.031 20.822C135.931 20.6161 135.131 19.484 135.331 18.3519C135.531 17.1168 136.631 16.3963 137.731 16.6021Z" fill="url(#paint53_linear_6008_207)"/>
<path d="M137.731 0.0317627C138.831 0.237604 139.631 1.36976 139.431 2.50189C139.231 3.63402 138.131 4.45733 137.031 4.25149C135.931 4.04565 135.131 2.91356 135.331 1.78143C135.531 0.649301 136.631 -0.174079 137.731 0.0317627Z" fill="black"/>
<path d="M137.731 0.0317627C138.831 0.237604 139.631 1.36976 139.431 2.50189C139.231 3.63402 138.131 4.45733 137.031 4.25149C135.931 4.04565 135.131 2.91356 135.331 1.78143C135.531 0.649301 136.631 -0.174079 137.731 0.0317627Z" fill="url(#paint54_linear_6008_207)"/>
<defs>
<linearGradient id="paint0_linear_6008_207" x1="26.4496" y1="35.2308" x2="80.4763" y2="51.4746" gradientUnits="userSpaceOnUse">
<stop offset="0.123666" stop-color="#88D8FF"/>
<stop offset="1" stop-color="#0179B4"/>
</linearGradient>
<linearGradient id="paint1_linear_6008_207" x1="26.4496" y1="35.2308" x2="80.4763" y2="51.4746" gradientUnits="userSpaceOnUse">
<stop offset="0.123666" stop-color="#88D8FF"/>
<stop offset="1" stop-color="#0179B4"/>
</linearGradient>
<linearGradient id="paint2_linear_6008_207" x1="26.4496" y1="35.2308" x2="80.4763" y2="51.4746" gradientUnits="userSpaceOnUse">
<stop offset="0.123666" stop-color="#88D8FF"/>
<stop offset="1" stop-color="#0179B4"/>
</linearGradient>
<linearGradient id="paint3_linear_6008_207" x1="26.4496" y1="35.2308" x2="80.4763" y2="51.4746" gradientUnits="userSpaceOnUse">
<stop offset="0.123666" stop-color="#88D8FF"/>
<stop offset="1" stop-color="#0179B4"/>
</linearGradient>
<linearGradient id="paint4_linear_6008_207" x1="26.4496" y1="35.2308" x2="80.4763" y2="51.4746" gradientUnits="userSpaceOnUse">
<stop offset="0.123666" stop-color="#88D8FF"/>
<stop offset="1" stop-color="#0179B4"/>
</linearGradient>
<linearGradient id="paint5_linear_6008_207" x1="26.4496" y1="35.2308" x2="80.4763" y2="51.4746" gradientUnits="userSpaceOnUse">
<stop offset="0.123666" stop-color="#88D8FF"/>
<stop offset="1" stop-color="#0179B4"/>
</linearGradient>
<linearGradient id="paint6_linear_6008_207" x1="26.4496" y1="35.2308" x2="80.4763" y2="51.4746" gradientUnits="userSpaceOnUse">
<stop offset="0.123666" stop-color="#88D8FF"/>
<stop offset="1" stop-color="#0179B4"/>
</linearGradient>
<linearGradient id="paint7_linear_6008_207" x1="26.4496" y1="35.2308" x2="80.4763" y2="51.4746" gradientUnits="userSpaceOnUse">
<stop offset="0.123666" stop-color="#88D8FF"/>
<stop offset="1" stop-color="#0179B4"/>
</linearGradient>
<linearGradient id="paint8_linear_6008_207" x1="26.4496" y1="35.2308" x2="80.4763" y2="51.4746" gradientUnits="userSpaceOnUse">
<stop offset="0.123666" stop-color="#88D8FF"/>
<stop offset="1" stop-color="#0179B4"/>
</linearGradient>
<linearGradient id="paint9_linear_6008_207" x1="26.4496" y1="35.2308" x2="80.4763" y2="51.4746" gradientUnits="userSpaceOnUse">
<stop offset="0.123666" stop-color="#88D8FF"/>
<stop offset="1" stop-color="#0179B4"/>
</linearGradient>
<linearGradient id="paint10_linear_6008_207" x1="26.4496" y1="35.2308" x2="80.4763" y2="51.4746" gradientUnits="userSpaceOnUse">
<stop offset="0.123666" stop-color="#88D8FF"/>
<stop offset="1" stop-color="#0179B4"/>
</linearGradient>
<linearGradient id="paint11_linear_6008_207" x1="26.4496" y1="35.2308" x2="80.4763" y2="51.4746" gradientUnits="userSpaceOnUse">
<stop offset="0.123666" stop-color="#88D8FF"/>
<stop offset="1" stop-color="#0179B4"/>
</linearGradient>
<linearGradient id="paint12_linear_6008_207" x1="26.4496" y1="35.2308" x2="80.4763" y2="51.4746" gradientUnits="userSpaceOnUse">
<stop offset="0.123666" stop-color="#88D8FF"/>
<stop offset="1" stop-color="#0179B4"/>
</linearGradient>
<linearGradient id="paint13_linear_6008_207" x1="26.4496" y1="35.2308" x2="80.4763" y2="51.4746" gradientUnits="userSpaceOnUse">
<stop offset="0.123666" stop-color="#88D8FF"/>
<stop offset="1" stop-color="#0179B4"/>
</linearGradient>
<linearGradient id="paint14_linear_6008_207" x1="26.4496" y1="35.2308" x2="80.4763" y2="51.4746" gradientUnits="userSpaceOnUse">
<stop offset="0.123666" stop-color="#88D8FF"/>
<stop offset="1" stop-color="#0179B4"/>
</linearGradient>
<linearGradient id="paint15_linear_6008_207" x1="26.4496" y1="35.2308" x2="80.4763" y2="51.4746" gradientUnits="userSpaceOnUse">
<stop offset="0.123666" stop-color="#88D8FF"/>
<stop offset="1" stop-color="#0179B4"/>
</linearGradient>
<linearGradient id="paint16_linear_6008_207" x1="26.4496" y1="35.2308" x2="80.4763" y2="51.4746" gradientUnits="userSpaceOnUse">
<stop offset="0.123666" stop-color="#88D8FF"/>
<stop offset="1" stop-color="#0179B4"/>
</linearGradient>
<linearGradient id="paint17_linear_6008_207" x1="26.4496" y1="35.2308" x2="80.4763" y2="51.4746" gradientUnits="userSpaceOnUse">
<stop offset="0.123666" stop-color="#88D8FF"/>
<stop offset="1" stop-color="#0179B4"/>
</linearGradient>
<linearGradient id="paint18_linear_6008_207" x1="26.4496" y1="35.2308" x2="80.4763" y2="51.4746" gradientUnits="userSpaceOnUse">
<stop offset="0.123666" stop-color="#88D8FF"/>
<stop offset="1" stop-color="#0179B4"/>
</linearGradient>
<linearGradient id="paint19_linear_6008_207" x1="26.4496" y1="35.2308" x2="80.4763" y2="51.4746" gradientUnits="userSpaceOnUse">
<stop offset="0.123666" stop-color="#88D8FF"/>
<stop offset="1" stop-color="#0179B4"/>
</linearGradient>
<linearGradient id="paint20_linear_6008_207" x1="26.4496" y1="35.2308" x2="80.4763" y2="51.4746" gradientUnits="userSpaceOnUse">
<stop offset="0.123666" stop-color="#88D8FF"/>
<stop offset="1" stop-color="#0179B4"/>
</linearGradient>
<linearGradient id="paint21_linear_6008_207" x1="26.4496" y1="35.2308" x2="80.4763" y2="51.4746" gradientUnits="userSpaceOnUse">
<stop offset="0.123666" stop-color="#88D8FF"/>
<stop offset="1" stop-color="#0179B4"/>
</linearGradient>
<linearGradient id="paint22_linear_6008_207" x1="26.4496" y1="35.2308" x2="80.4763" y2="51.4746" gradientUnits="userSpaceOnUse">
<stop offset="0.123666" stop-color="#88D8FF"/>
<stop offset="1" stop-color="#0179B4"/>
</linearGradient>
<linearGradient id="paint23_linear_6008_207" x1="26.4496" y1="35.2308" x2="80.4763" y2="51.4746" gradientUnits="userSpaceOnUse">
<stop offset="0.123666" stop-color="#88D8FF"/>
<stop offset="1" stop-color="#0179B4"/>
</linearGradient>
<linearGradient id="paint24_linear_6008_207" x1="26.4496" y1="35.2308" x2="80.4763" y2="51.4746" gradientUnits="userSpaceOnUse">
<stop offset="0.123666" stop-color="#88D8FF"/>
<stop offset="1" stop-color="#0179B4"/>
</linearGradient>
<linearGradient id="paint25_linear_6008_207" x1="26.4496" y1="35.2308" x2="80.4763" y2="51.4746" gradientUnits="userSpaceOnUse">
<stop offset="0.123666" stop-color="#88D8FF"/>
<stop offset="1" stop-color="#0179B4"/>
</linearGradient>
<linearGradient id="paint26_linear_6008_207" x1="26.4496" y1="35.2308" x2="80.4763" y2="51.4746" gradientUnits="userSpaceOnUse">
<stop offset="0.123666" stop-color="#88D8FF"/>
<stop offset="1" stop-color="#0179B4"/>
</linearGradient>
<linearGradient id="paint27_linear_6008_207" x1="26.4496" y1="35.2308" x2="80.4763" y2="51.4746" gradientUnits="userSpaceOnUse">
<stop offset="0.123666" stop-color="#88D8FF"/>
<stop offset="1" stop-color="#0179B4"/>
</linearGradient>
<linearGradient id="paint28_linear_6008_207" x1="26.4496" y1="35.2308" x2="80.4763" y2="51.4746" gradientUnits="userSpaceOnUse">
<stop offset="0.123666" stop-color="#88D8FF"/>
<stop offset="1" stop-color="#0179B4"/>
</linearGradient>
<linearGradient id="paint29_linear_6008_207" x1="26.4496" y1="35.2308" x2="80.4763" y2="51.4746" gradientUnits="userSpaceOnUse">
<stop offset="0.123666" stop-color="#88D8FF"/>
<stop offset="1" stop-color="#0179B4"/>
</linearGradient>
<linearGradient id="paint30_linear_6008_207" x1="26.4496" y1="35.2308" x2="80.4763" y2="51.4746" gradientUnits="userSpaceOnUse">
<stop offset="0.123666" stop-color="#88D8FF"/>
<stop offset="1" stop-color="#0179B4"/>
</linearGradient>
<linearGradient id="paint31_linear_6008_207" x1="26.4496" y1="35.2308" x2="80.4763" y2="51.4746" gradientUnits="userSpaceOnUse">
<stop offset="0.123666" stop-color="#88D8FF"/>
<stop offset="1" stop-color="#0179B4"/>
</linearGradient>
<linearGradient id="paint32_linear_6008_207" x1="26.4496" y1="35.2308" x2="80.4763" y2="51.4746" gradientUnits="userSpaceOnUse">
<stop offset="0.123666" stop-color="#88D8FF"/>
<stop offset="1" stop-color="#0179B4"/>
</linearGradient>
<linearGradient id="paint33_linear_6008_207" x1="26.4496" y1="35.2308" x2="80.4763" y2="51.4746" gradientUnits="userSpaceOnUse">
<stop offset="0.123666" stop-color="#88D8FF"/>
<stop offset="1" stop-color="#0179B4"/>
</linearGradient>
<linearGradient id="paint34_linear_6008_207" x1="26.4496" y1="35.2308" x2="80.4763" y2="51.4746" gradientUnits="userSpaceOnUse">
<stop offset="0.123666" stop-color="#88D8FF"/>
<stop offset="1" stop-color="#0179B4"/>
</linearGradient>
<linearGradient id="paint35_linear_6008_207" x1="26.4496" y1="35.2308" x2="80.4763" y2="51.4746" gradientUnits="userSpaceOnUse">
<stop offset="0.123666" stop-color="#88D8FF"/>
<stop offset="1" stop-color="#0179B4"/>
</linearGradient>
<linearGradient id="paint36_linear_6008_207" x1="26.4496" y1="35.2308" x2="80.4763" y2="51.4746" gradientUnits="userSpaceOnUse">
<stop offset="0.123666" stop-color="#88D8FF"/>
<stop offset="1" stop-color="#0179B4"/>
</linearGradient>
<linearGradient id="paint37_linear_6008_207" x1="26.4496" y1="35.2308" x2="80.4763" y2="51.4746" gradientUnits="userSpaceOnUse">
<stop offset="0.123666" stop-color="#88D8FF"/>
<stop offset="1" stop-color="#0179B4"/>
</linearGradient>
<linearGradient id="paint38_linear_6008_207" x1="26.4496" y1="35.2308" x2="80.4763" y2="51.4746" gradientUnits="userSpaceOnUse">
<stop offset="0.123666" stop-color="#88D8FF"/>
<stop offset="1" stop-color="#0179B4"/>
</linearGradient>
<linearGradient id="paint39_linear_6008_207" x1="26.4496" y1="35.2308" x2="80.4763" y2="51.4746" gradientUnits="userSpaceOnUse">
<stop offset="0.123666" stop-color="#88D8FF"/>
<stop offset="1" stop-color="#0179B4"/>
</linearGradient>
<linearGradient id="paint40_linear_6008_207" x1="26.4496" y1="35.2308" x2="80.4763" y2="51.4746" gradientUnits="userSpaceOnUse">
<stop offset="0.123666" stop-color="#88D8FF"/>
<stop offset="1" stop-color="#0179B4"/>
</linearGradient>
<linearGradient id="paint41_linear_6008_207" x1="26.4496" y1="35.2308" x2="80.4763" y2="51.4746" gradientUnits="userSpaceOnUse">
<stop offset="0.123666" stop-color="#88D8FF"/>
<stop offset="1" stop-color="#0179B4"/>
</linearGradient>
<linearGradient id="paint42_linear_6008_207" x1="26.4496" y1="35.2308" x2="80.4763" y2="51.4746" gradientUnits="userSpaceOnUse">
<stop offset="0.123666" stop-color="#88D8FF"/>
<stop offset="1" stop-color="#0179B4"/>
</linearGradient>
<linearGradient id="paint43_linear_6008_207" x1="26.4496" y1="35.2308" x2="80.4763" y2="51.4746" gradientUnits="userSpaceOnUse">
<stop offset="0.123666" stop-color="#88D8FF"/>
<stop offset="1" stop-color="#0179B4"/>
</linearGradient>
<linearGradient id="paint44_linear_6008_207" x1="26.4496" y1="35.2308" x2="80.4763" y2="51.4746" gradientUnits="userSpaceOnUse">
<stop offset="0.123666" stop-color="#88D8FF"/>
<stop offset="1" stop-color="#0179B4"/>
</linearGradient>
<linearGradient id="paint45_linear_6008_207" x1="26.4496" y1="35.2308" x2="80.4763" y2="51.4746" gradientUnits="userSpaceOnUse">
<stop offset="0.123666" stop-color="#88D8FF"/>
<stop offset="1" stop-color="#0179B4"/>
</linearGradient>
<linearGradient id="paint46_linear_6008_207" x1="26.4496" y1="35.2308" x2="80.4763" y2="51.4746" gradientUnits="userSpaceOnUse">
<stop offset="0.123666" stop-color="#88D8FF"/>
<stop offset="1" stop-color="#0179B4"/>
</linearGradient>
<linearGradient id="paint47_linear_6008_207" x1="26.4496" y1="35.2308" x2="80.4763" y2="51.4746" gradientUnits="userSpaceOnUse">
<stop offset="0.123666" stop-color="#88D8FF"/>
<stop offset="1" stop-color="#0179B4"/>
</linearGradient>
<linearGradient id="paint48_linear_6008_207" x1="26.4496" y1="35.2308" x2="80.4763" y2="51.4746" gradientUnits="userSpaceOnUse">
<stop offset="0.123666" stop-color="#88D8FF"/>
<stop offset="1" stop-color="#0179B4"/>
</linearGradient>
<linearGradient id="paint49_linear_6008_207" x1="26.4496" y1="35.2308" x2="80.4763" y2="51.4746" gradientUnits="userSpaceOnUse">
<stop offset="0.123666" stop-color="#88D8FF"/>
<stop offset="1" stop-color="#0179B4"/>
</linearGradient>
<linearGradient id="paint50_linear_6008_207" x1="26.4496" y1="35.2308" x2="80.4763" y2="51.4746" gradientUnits="userSpaceOnUse">
<stop offset="0.123666" stop-color="#88D8FF"/>
<stop offset="1" stop-color="#0179B4"/>
</linearGradient>
<linearGradient id="paint51_linear_6008_207" x1="26.4496" y1="35.2308" x2="80.4763" y2="51.4746" gradientUnits="userSpaceOnUse">
<stop offset="0.123666" stop-color="#88D8FF"/>
<stop offset="1" stop-color="#0179B4"/>
</linearGradient>
<linearGradient id="paint52_linear_6008_207" x1="26.4496" y1="35.2308" x2="80.4763" y2="51.4746" gradientUnits="userSpaceOnUse">
<stop offset="0.123666" stop-color="#88D8FF"/>
<stop offset="1" stop-color="#0179B4"/>
</linearGradient>
<linearGradient id="paint53_linear_6008_207" x1="26.4496" y1="35.2308" x2="80.4763" y2="51.4746" gradientUnits="userSpaceOnUse">
<stop offset="0.123666" stop-color="#88D8FF"/>
<stop offset="1" stop-color="#0179B4"/>
</linearGradient>
<linearGradient id="paint54_linear_6008_207" x1="26.4496" y1="35.2308" x2="80.4763" y2="51.4746" gradientUnits="userSpaceOnUse">
<stop offset="0.123666" stop-color="#88D8FF"/>
<stop offset="1" stop-color="#0179B4"/>
</linearGradient>
</defs>
</svg>
