<svg width="32" height="32" viewBox="0 0 32 32" fill="none" xmlns="http://www.w3.org/2000/svg">
<path d="M19.6676 20.6353L21.562 18.7401C21.8172 18.488 22.14 18.3154 22.4913 18.2433C22.8426 18.1712 23.2072 18.2027 23.541 18.334L25.8498 19.2562C26.1871 19.3931 26.4763 19.6269 26.681 19.928C26.8857 20.2292 26.9967 20.5842 27 20.9483V25.1786C26.998 25.4263 26.946 25.6711 26.847 25.8981C26.748 26.1252 26.6041 26.3298 26.4239 26.4998C26.2438 26.6697 26.0311 26.8015 25.7987 26.887C25.5663 26.9726 25.3191 27.0102 25.0718 26.9976C8.89312 25.9908 5.62864 12.2846 5.01126 7.03904C4.9826 6.78145 5.00879 6.5207 5.0881 6.27396C5.1674 6.02721 5.29803 5.80006 5.47139 5.60745C5.64475 5.41484 5.85691 5.26113 6.09392 5.15644C6.33092 5.05175 6.5874 4.99844 6.84648 5.00003H10.9313C11.2958 5.00111 11.6517 5.11126 11.9531 5.31632C12.2545 5.52137 12.4877 5.81195 12.6227 6.15068L13.5446 8.46043C13.6801 8.79299 13.7147 9.15812 13.644 9.51023C13.5733 9.86233 13.4005 10.1858 13.1471 10.4402L11.2527 12.3354C11.2527 12.3354 12.3437 19.7215 19.6676 20.6353Z" fill="#00A4F4"/>
</svg>
